<svg width="432" height="300" viewBox="0 0 432 300" fill="none" xmlns="http://www.w3.org/2000/svg">
    <path d="M62.2554 270.709H29.8063C29.6885 270.707 29.5761 270.659 29.4928 270.576C29.4095 270.493 29.3617 270.38 29.3594 270.263V247.058C29.3617 246.94 29.4095 246.828 29.4928 246.745C29.5761 246.662 29.6885 246.614 29.8063 246.612H62.2554C62.3739 246.612 62.4876 246.659 62.5714 246.743C62.6552 246.826 62.7023 246.94 62.7023 247.058V270.263C62.7023 270.381 62.6552 270.495 62.5714 270.578C62.4876 270.662 62.3739 270.709 62.2554 270.709ZM30.2175 269.817H61.8442V247.504H30.2533L30.2175 269.817Z" fill="#263238"/>
    <path d="M46.0487 259.098C45.9562 259.097 45.866 259.069 45.7895 259.018L29.5471 247.415C29.4528 247.344 29.3898 247.239 29.3715 247.123C29.3532 247.006 29.3808 246.887 29.4487 246.791C29.5184 246.697 29.6219 246.634 29.7371 246.616C29.8524 246.598 29.9703 246.625 30.0655 246.692L46.0487 258.116L62.0319 246.692C62.1286 246.625 62.2479 246.597 62.3646 246.615C62.4813 246.634 62.5864 246.696 62.6576 246.791C62.6919 246.838 62.7164 246.893 62.7295 246.95C62.7427 247.008 62.7444 247.067 62.7344 247.125C62.7244 247.183 62.703 247.239 62.6714 247.289C62.6398 247.338 62.5987 247.381 62.5503 247.415L46.3079 259.018C46.232 259.071 46.1414 259.099 46.0487 259.098Z" fill="#263238"/>
    <path d="M425.711 299.001H10.7212V299.894H425.711V299.001Z" fill="#263238"/>
    <path d="M9.18365 185.896C12.0978 185.423 17.5775 181.71 17.5864 181.71C17.5954 181.71 14.0108 178.845 13.7873 178.694C10.9178 176.909 4.33864 175.213 1.47812 177.658C1.01286 178.077 0.640853 178.588 0.386217 179.159C0.131582 179.73 0 180.349 0 180.974C0 181.599 0.131582 182.217 0.386217 182.788C0.640853 183.36 1.01286 183.871 1.47812 184.289C3.42685 186.128 6.69857 186.297 9.18365 185.896Z" fill="#263238"/>
    <path d="M21.5017 200.738C24.0851 199.56 28.1167 194.928 28.4385 194.562C31.0881 196.87 33.8893 198.999 36.8234 200.934C38.5218 202.068 40.2739 203.166 42.0438 204.237C41.1499 203.871 40.3722 203.54 40.256 203.514C37.029 202.568 30.2263 202.621 28.1077 205.754C27.7718 206.282 27.5509 206.875 27.4593 207.494C27.3677 208.113 27.4075 208.744 27.5761 209.346C27.7447 209.949 28.0383 210.509 28.4379 210.991C28.8375 211.473 29.3341 211.866 29.8956 212.144C32.2376 213.411 35.4468 212.715 37.7262 211.671C40.0057 210.627 43.5724 206.727 44.4842 205.691L46.5313 206.905C49.8209 208.842 53.1016 210.752 56.266 212.724C57.3834 213.42 58.4561 214.143 59.5377 214.866C58.7511 214.545 58.0896 214.268 57.9823 214.241C54.7553 213.295 47.9526 213.349 45.834 216.49C45.4981 217.019 45.2772 217.611 45.1856 218.23C45.094 218.849 45.1338 219.48 45.3024 220.083C45.471 220.686 45.7646 221.246 46.1642 221.728C46.5638 222.21 47.0604 222.603 47.6219 222.881C49.9639 224.139 53.1641 223.443 55.4525 222.399C57.741 221.354 60.9501 217.838 62.0496 216.606C63.1312 217.374 64.2129 218.15 65.223 218.945C65.9024 219.507 66.5907 219.998 67.2432 220.596L69.1741 222.292C70.3719 223.434 71.6145 224.603 72.7497 225.745C73.5453 226.54 74.2962 227.298 75.0471 228.075C73.9476 227.37 71.7575 226.031 71.5698 225.942C68.5126 224.523 61.7367 223.568 59.2159 226.326C58.8032 226.796 58.4942 227.348 58.3089 227.945C58.1236 228.543 58.0662 229.173 58.1404 229.794C58.2146 230.415 58.4187 231.013 58.7395 231.551C59.0603 232.088 59.4906 232.552 60.0026 232.912C62.1301 234.51 65.366 234.313 67.8154 233.626C70.4971 232.867 74.9667 229.074 75.5656 228.592C76.8171 229.878 78.0149 231.136 79.1412 232.332C81.6084 235.009 83.7359 237.41 85.5059 239.472L87.5887 238.133C85.7025 236.018 83.4231 233.528 80.7682 230.797C79.5077 229.485 78.14 228.119 76.7187 226.727C77.8144 225.176 78.8203 223.564 79.7312 221.899C82.4845 222.613 87.9642 221.988 88.6703 221.899C89.0011 223.684 89.305 225.362 89.5643 226.977C90.1274 230.36 90.5476 233.403 90.8694 236.009L93.122 234.563C92.7555 232.198 92.3175 229.521 91.7722 226.593C91.4415 224.808 91.0481 222.907 90.6369 220.971C91.3074 220.712 96.8228 218.552 98.7626 216.58C100.55 214.795 102.267 212.01 101.882 209.377C101.81 208.756 101.607 208.157 101.288 207.619C100.969 207.081 100.54 206.616 100.029 206.255C99.5186 205.893 98.9374 205.642 98.3234 205.519C97.7094 205.396 97.0764 205.403 96.4653 205.54C92.8092 206.432 90.4314 212.831 90.2079 216.187C90.2079 216.383 90.2973 218.543 90.3867 219.909C90.2168 219.114 90.0559 218.347 89.8682 217.526C89.5017 215.919 89.0905 214.313 88.6525 212.599L87.9284 210.1C87.7049 209.261 87.3563 208.404 87.0345 207.539C86.3372 205.566 85.5327 203.603 84.6746 201.63C86.0869 201.309 91.0928 200.095 93.1131 198.587C95.1333 197.079 97.2698 194.598 97.2787 191.947C97.3027 191.322 97.1948 190.699 96.962 190.118C96.7292 189.538 96.3767 189.012 95.9275 188.576C95.4782 188.14 94.9422 187.804 94.3541 187.588C93.7661 187.372 93.1392 187.282 92.5142 187.324C88.7597 187.69 85.4433 193.616 84.7192 196.9C84.7192 197.106 84.4332 199.524 84.317 200.854C83.7985 199.676 83.28 198.498 82.7079 197.329C81.0721 193.937 79.3111 190.564 77.5679 187.181C77.0316 186.146 76.5131 185.111 75.9857 184.075C76.4863 183.968 82.4666 182.647 84.7371 180.952C86.7484 179.452 88.8938 176.971 88.9028 174.311C88.9255 173.686 88.8164 173.063 88.5826 172.483C88.3487 171.903 87.9952 171.378 87.5451 170.943C87.095 170.508 86.5583 170.172 85.9698 169.958C85.3814 169.743 84.7543 169.654 84.1293 169.697C80.3838 170.063 77.0584 175.989 76.3433 179.274C76.2896 179.524 75.9321 182.995 75.8874 183.888C74.7342 181.603 73.599 179.318 72.5799 177.025C71.1854 173.927 69.9911 170.743 69.0043 167.493C69.2367 167.439 75.4851 166.092 77.8093 164.36C79.8206 162.852 81.966 160.371 81.9749 157.72C81.9977 157.095 81.8886 156.472 81.6547 155.892C81.4208 155.312 81.0674 154.787 80.6173 154.352C80.1672 153.917 79.6305 153.581 79.042 153.366C78.4535 153.152 77.8265 153.063 77.2014 153.106C73.4559 153.472 70.1306 159.398 69.4155 162.682C69.3618 162.932 68.9774 166.672 68.9596 167.359C68.9059 167.172 68.8255 166.984 68.7718 166.788C67.8806 163.5 67.2823 160.14 66.984 156.747C66.7963 154.882 66.7158 153.079 66.689 151.321C67.8779 151.196 73.304 150.536 75.5656 149.206C77.8272 147.876 80.1335 145.698 80.4374 143.057C80.5281 142.438 80.4876 141.808 80.3187 141.206C80.1497 140.604 79.8559 140.044 79.4565 139.563C79.057 139.082 78.5607 138.689 77.9998 138.412C77.4389 138.134 76.8258 137.977 76.2003 137.952C72.4369 137.898 68.4858 143.423 67.4042 146.609C67.3505 146.787 66.9483 148.608 66.6801 149.947C66.6801 149.152 66.6801 148.34 66.6801 147.582C66.6801 144.734 66.9214 142.128 67.127 139.826C67.2522 138.514 67.3952 137.336 67.5382 136.256C68.6378 135.515 73.0358 132.49 74.4035 130.312C75.7712 128.134 76.8349 125.1 75.8874 122.619C75.6831 122.028 75.3568 121.486 74.9295 121.029C74.5022 120.572 73.9835 120.21 73.4071 119.966C72.8306 119.722 72.2092 119.602 71.5832 119.613C70.9572 119.624 70.3405 119.766 69.773 120.03C66.403 121.717 65.4465 128.438 65.965 131.767C65.965 132.052 67.2254 136.461 67.2879 136.425L67.3505 136.381C67.1896 137.443 67.0377 138.576 66.8857 139.826C66.6264 142.128 66.3672 144.734 66.2689 147.59C66.1268 150.669 66.1656 153.753 66.3851 156.828C66.6101 160.272 67.1456 163.689 67.9852 167.038C67.9852 167.038 67.9852 167.109 67.9852 167.154C67.4042 166.217 65.6789 163.646 65.5269 163.468C63.3547 160.897 57.6426 157.22 54.1564 158.648C53.5844 158.903 53.0724 159.275 52.6537 159.74C52.235 160.206 51.9189 160.753 51.7259 161.348C51.5329 161.943 51.4673 162.572 51.5333 163.194C51.5994 163.816 51.7956 164.417 52.1093 164.958C53.3608 167.305 56.418 168.528 58.903 168.876C61.701 169.314 67.6276 167.671 68.1014 167.537C69.0356 170.925 70.1943 174.246 71.5698 177.48C72.3654 179.363 73.2235 181.237 74.1085 183.111C73.5722 182.317 73.0984 181.612 73.0179 181.514C70.8457 178.952 65.1247 175.266 61.6384 176.703C61.0713 176.965 60.5653 177.342 60.1532 177.811C59.7411 178.28 59.432 178.83 59.2459 179.425C59.0597 180.02 59.0006 180.648 59.0725 181.268C59.1443 181.887 59.3454 182.485 59.6629 183.022C60.9233 185.369 63.9805 186.592 66.4655 186.949C68.9506 187.306 74.0638 186.057 75.4047 185.673C75.7533 186.387 76.084 187.11 76.4327 187.824C78.1043 191.242 79.7938 194.642 81.3403 198.034C81.8855 199.23 82.3861 200.426 82.8778 201.604C82.4129 200.899 81.9839 200.31 81.9839 200.229C79.8027 197.659 74.0906 193.982 70.6044 195.41C70.0223 195.66 69.5002 196.03 69.0725 196.497C68.6447 196.963 68.3213 197.515 68.1235 198.116C67.9257 198.717 67.8581 199.353 67.9252 199.982C67.9923 200.611 68.1925 201.219 68.5126 201.764C69.773 204.103 72.8302 205.29 75.3153 205.682C77.8004 206.075 82.4129 204.897 84.0131 204.477C84.4868 205.709 84.9606 206.959 85.3629 208.181C85.6221 209.02 85.926 209.806 86.1406 210.671L86.811 213.179C87.1775 214.795 87.5708 216.455 87.8926 218.034C88.1161 219.141 88.3217 220.185 88.5273 221.247C87.991 220.051 86.9093 217.731 86.7931 217.552C85.1521 215.088 82.9054 213.084 80.2676 211.733C80.0951 211.454 79.9008 211.188 79.6865 210.939C79.2826 210.461 78.7825 210.073 78.2187 209.8C77.6548 209.527 77.0397 209.375 76.4134 209.355C75.7871 209.335 75.1636 209.446 74.5832 209.682C74.0029 209.918 73.4787 210.274 73.0447 210.725C70.506 213.509 72.0346 220.123 73.7152 223.041C73.8135 223.211 75.1007 224.96 75.9231 226.049C75.3421 225.478 74.7789 224.924 74.1353 224.353C72.9464 223.202 71.7128 222.095 70.3988 220.899L68.4143 219.221C67.7617 218.641 67.0019 218.115 66.2957 217.552C64.6151 216.294 62.8631 215.098 61.0574 213.929C62.0675 212.876 65.5269 209.109 66.4209 206.735C67.3148 204.361 67.6902 201.122 66.2331 198.899C65.907 198.366 65.4723 197.907 64.9571 197.552C64.442 197.197 63.8579 196.954 63.2428 196.839C62.6276 196.724 61.995 196.739 61.386 196.883C60.7771 197.027 60.2052 197.298 59.7076 197.677C56.7755 200.051 57.2761 206.825 58.5008 209.957C58.5723 210.154 59.6986 212.305 60.3422 213.474C59.2517 212.778 58.179 212.081 57.0526 211.412C53.8167 209.493 50.4734 207.646 47.157 205.789L44.1177 204.067C44.4842 203.701 48.7393 199.31 49.6957 196.65C50.5897 194.285 50.9562 191.037 49.4991 188.814C49.1729 188.281 48.7382 187.822 48.2231 187.467C47.7079 187.112 47.1239 186.869 46.5087 186.754C45.8935 186.639 45.261 186.654 44.652 186.798C44.043 186.942 43.4712 187.213 42.9735 187.592C40.0415 189.966 40.551 196.731 41.7667 199.863C41.8561 200.104 43.483 203.192 43.9389 203.96C41.7131 202.693 39.4694 201.416 37.3866 200.06C34.5097 198.247 31.7536 196.249 29.1357 194.08C29.3056 193.91 33.7752 189.341 34.7495 186.619C35.5898 184.254 36.0099 181.005 34.5529 178.783C34.2267 178.249 33.792 177.79 33.2769 177.435C32.7617 177.081 32.1777 176.838 31.5625 176.722C30.9473 176.607 30.3148 176.622 29.7058 176.766C29.0968 176.911 28.5249 177.181 28.0273 177.56C25.0953 179.934 25.6048 186.708 26.8205 189.841C26.9188 190.082 28.662 193.411 29.0285 193.991L28.5547 193.625C25.9912 191.376 23.6338 188.903 21.5107 186.235C20.3128 184.78 19.258 183.326 18.2568 181.88C19.1507 181.112 23.3432 177.569 24.5142 175.222C25.6852 172.875 26.3825 169.778 25.1757 167.413C24.9107 166.847 24.5297 166.343 24.0573 165.933C23.5849 165.524 23.0317 165.218 22.4335 165.036C21.8353 164.853 21.2053 164.798 20.5844 164.874C19.9635 164.95 19.3654 165.155 18.8289 165.476C15.6555 167.511 15.4142 174.303 16.2723 177.551C16.326 177.73 16.9964 179.47 17.5149 180.728C17.0679 180.077 16.621 179.408 16.1919 178.765C14.6544 176.373 13.385 174.079 12.2855 172.045C11.6687 170.884 11.1323 169.822 10.6407 168.823C11.1502 167.6 13.1436 162.656 13.0811 160.085C13.0185 157.515 12.2319 154.391 10.0686 152.847C9.57183 152.466 9.00032 152.193 8.39115 152.047C7.78198 151.9 7.14875 151.883 6.53257 151.997C5.91638 152.11 5.33101 152.352 4.81444 152.706C4.29787 153.06 3.86165 153.519 3.53408 154.052C1.6658 157.319 4.57996 163.459 6.8505 165.94C7.04716 166.154 10.4977 169.162 10.5245 169.099C10.5273 169.076 10.5273 169.052 10.5245 169.028C10.9804 170.001 11.472 171.036 12.0441 172.161C13.0989 174.222 14.3236 176.543 15.8164 178.979C17.4113 181.617 19.1604 184.159 21.0548 186.592C23.1495 189.336 25.4827 191.889 28.0273 194.223L28.1256 194.303C27.1155 193.839 24.2729 192.643 24.0404 192.581C20.8045 191.635 14.0107 191.688 11.8922 194.83C11.5562 195.358 11.3353 195.951 11.2437 196.57C11.1521 197.189 11.1919 197.82 11.3605 198.422C11.5291 199.025 11.8227 199.585 12.2223 200.067C12.6219 200.549 13.1185 200.942 13.68 201.22C16.0131 202.478 19.2133 201.764 21.5017 200.738Z" fill="#263238"/>
    <path d="M66.2243 150.893C66.2869 150.893 64.8477 146.546 64.7226 146.287C63.3012 143.235 58.7691 138.175 55.0236 138.639C54.4054 138.734 53.8142 138.959 53.2882 139.297C52.7622 139.635 52.3133 140.08 51.9703 140.602C51.6274 141.125 51.3981 141.713 51.2974 142.33C51.1966 142.946 51.2266 143.577 51.3854 144.181C51.9754 146.778 54.6124 148.724 56.9008 149.759C59.5736 150.937 66.2154 150.893 66.2243 150.893Z" fill="#263238"/>
    <path d="M368.17 76.9235C369.172 79.0119 373.177 82.2784 373.177 82.2784C373.177 82.2784 374.553 78.9852 374.616 78.762C375.304 76.2274 375.152 70.9082 372.676 69.2928C372.258 69.0363 371.79 68.8708 371.303 68.8069C370.816 68.743 370.321 68.7822 369.851 68.922C369.38 69.0617 368.944 69.2989 368.571 69.6181C368.199 69.9372 367.897 70.3312 367.687 70.7743C366.731 72.6574 367.321 75.1475 368.17 76.9235Z" fill="#263238"/>
    <path d="M359.714 89.445C361.171 91.1228 365.551 93.122 365.9 93.2827C364.748 95.7828 363.763 98.3557 362.95 100.985C362.476 102.511 362.056 104.073 361.618 105.635C361.698 104.894 361.77 104.225 361.77 104.135C361.77 101.458 360.205 96.4153 357.399 95.5139C356.928 95.3759 356.433 95.3387 355.946 95.4048C355.46 95.4709 354.993 95.6387 354.577 95.8974C354.16 96.156 353.802 96.4996 353.528 96.9057C353.253 97.3117 353.067 97.7711 352.983 98.2538C352.545 100.289 353.778 102.547 355.065 104.028C356.353 105.51 360.08 107.321 361.064 107.777C360.912 108.384 360.751 108.981 360.599 109.562C359.866 112.453 359.151 115.336 358.364 118.147C358.087 119.138 357.783 120.102 357.47 121.075C357.55 120.414 357.604 119.852 357.604 119.772C357.604 117.094 356.04 112.052 353.233 111.15C352.762 111.012 352.267 110.975 351.781 111.041C351.295 111.107 350.828 111.275 350.411 111.534C349.994 111.792 349.637 112.136 349.362 112.542C349.087 112.948 348.902 113.407 348.817 113.89C348.379 115.934 349.613 118.183 350.9 119.665C352.187 121.146 355.548 122.779 356.719 123.333C356.379 124.314 356.031 125.296 355.655 126.233C355.387 126.867 355.164 127.492 354.86 128.116C354.556 128.741 354.279 129.348 353.966 129.955C353.367 131.106 352.759 132.302 352.178 133.409C351.758 134.185 351.347 134.917 350.936 135.649C351.222 134.667 351.74 132.731 351.767 132.57C352.169 129.964 351.4 124.698 348.754 123.386C348.309 123.18 347.826 123.069 347.335 123.062C346.844 123.054 346.358 123.15 345.906 123.343C345.455 123.536 345.05 123.821 344.717 124.181C344.383 124.54 344.13 124.966 343.972 125.43C343.23 127.376 344.106 129.785 345.161 131.454C346.314 133.284 350.167 135.845 350.658 136.158C349.97 137.371 349.282 138.55 348.629 139.656C347.172 142.084 345.822 144.217 344.651 146.011L346.117 147.269C347.288 145.395 348.665 143.128 350.14 140.531C350.846 139.299 351.57 137.969 352.303 136.595C353.713 137.073 355.149 137.472 356.603 137.791C356.674 140.013 358.391 143.994 358.578 144.502C357.336 145.136 356.111 145.743 354.958 146.287C352.536 147.457 350.337 148.447 348.441 149.268L350.024 150.634C351.731 149.839 353.653 148.92 355.736 147.858C357.005 147.216 358.346 146.511 359.714 145.761C360.062 146.216 362.896 149.875 364.818 150.902C366.552 151.794 369.028 152.517 370.923 151.642C371.376 151.452 371.783 151.169 372.118 150.811C372.453 150.453 372.709 150.029 372.868 149.565C373.028 149.102 373.087 148.61 373.043 148.122C372.999 147.634 372.853 147.161 372.613 146.734C371.111 144.199 365.792 143.815 363.227 144.395C363.075 144.395 361.439 144.984 360.465 145.359L362.136 144.467C363.272 143.833 364.38 143.173 365.587 142.468L367.303 141.37C367.884 141.013 368.456 140.567 369.037 140.165C370.369 139.201 371.674 138.166 372.97 137.095C373.525 138.085 375.536 141.557 377.127 142.753C378.718 143.949 381.042 144.993 383.045 144.413C383.521 144.295 383.968 144.077 384.354 143.774C384.74 143.471 385.058 143.091 385.287 142.657C385.516 142.223 385.65 141.745 385.681 141.256C385.712 140.767 385.639 140.276 385.467 139.817C384.368 137.077 379.165 135.899 376.528 136.086C376.367 136.086 374.49 136.443 373.471 136.649C374.24 135.997 375.009 135.354 375.768 134.667C377.959 132.695 380.113 130.624 382.267 128.563L384.261 126.697C384.448 127.045 386.764 131.249 388.542 132.57C390.116 133.748 392.458 134.81 394.46 134.23C394.936 134.11 395.381 133.892 395.767 133.589C396.152 133.286 396.47 132.905 396.698 132.471C396.927 132.038 397.061 131.561 397.093 131.072C397.125 130.583 397.053 130.093 396.883 129.634C395.774 126.903 390.581 125.716 387.944 125.903C387.747 125.903 385.047 126.421 384.368 126.581C385.834 125.207 387.309 123.904 388.837 122.583C390.86 120.853 392.992 119.255 395.22 117.799C395.309 117.96 397.705 122.351 399.52 123.708C401.102 124.886 403.435 125.948 405.446 125.368C405.921 125.247 406.366 125.027 406.75 124.724C407.135 124.421 407.451 124.04 407.679 123.606C407.906 123.173 408.04 122.696 408.071 122.208C408.103 121.72 408.031 121.23 407.86 120.771C406.76 118.04 401.602 116.853 398.921 117.041C398.706 117.041 395.81 117.594 395.291 117.737L395.676 117.469C397.949 116.07 400.342 114.875 402.827 113.899C404.195 113.346 405.509 112.891 406.841 112.48C407.207 113.373 408.897 117.273 410.416 118.674C411.936 120.075 414.064 121.351 416.12 120.977C416.606 120.908 417.073 120.739 417.489 120.479C417.906 120.22 418.263 119.875 418.538 119.469C418.813 119.063 418.999 118.603 419.084 118.12C419.17 117.637 419.153 117.142 419.034 116.666C418.238 113.828 413.205 112.087 410.568 111.98C410.425 111.98 408.959 112.078 407.887 112.168L409.675 111.641C411.829 111.043 413.831 110.624 415.61 110.267C416.629 110.07 417.55 109.919 418.408 109.785C419.213 110.445 422.457 113.078 424.397 113.613C426.337 114.149 428.867 114.301 430.521 113.033C430.922 112.751 431.259 112.387 431.51 111.966C431.761 111.545 431.92 111.075 431.977 110.588C432.033 110.101 431.986 109.608 431.839 109.14C431.691 108.672 431.446 108.241 431.12 107.875C429.108 105.724 423.834 106.483 421.447 107.607C421.242 107.705 418.185 109.588 418.229 109.624C417.398 109.74 416.504 109.865 415.548 110.035C413.76 110.347 411.731 110.731 409.558 111.284C407.21 111.858 404.897 112.567 402.63 113.408C400.091 114.344 397.638 115.499 395.3 116.862L395.22 116.916C395.801 116.273 397.347 114.417 397.455 114.238C398.903 112.034 400.414 106.938 398.572 104.635C398.255 104.261 397.862 103.958 397.419 103.746C396.976 103.534 396.494 103.418 396.003 103.404C395.512 103.391 395.024 103.481 394.57 103.668C394.116 103.856 393.707 104.136 393.37 104.492C391.877 105.947 391.662 108.508 391.921 110.454C392.207 112.659 394.755 116.701 394.952 117.067C392.612 118.517 390.369 120.118 388.239 121.86C386.993 122.877 385.765 123.928 384.556 125.011L385.521 123.841C386.969 121.637 388.48 116.541 386.629 114.238C386.313 113.865 385.92 113.562 385.478 113.35C385.037 113.138 384.555 113.021 384.065 113.008C383.574 112.994 383.087 113.084 382.634 113.272C382.181 113.459 381.773 113.74 381.436 114.095C379.943 115.55 379.728 118.112 379.979 120.057C380.229 122.003 382.339 125.564 382.911 126.492L381.525 127.742C379.317 129.75 377.127 131.767 374.919 133.677C374.141 134.346 373.346 134.98 372.559 135.622C372.988 135.113 373.337 134.676 373.391 134.605C374.839 132.409 376.349 127.313 374.499 125.011C374.182 124.635 373.79 124.331 373.347 124.119C372.904 123.906 372.421 123.789 371.93 123.775C371.439 123.762 370.95 123.852 370.496 124.04C370.042 124.229 369.634 124.511 369.296 124.868C367.813 126.322 367.598 128.884 367.848 130.83C368.099 132.775 370.012 135.988 370.682 137.077C369.851 137.702 369.019 138.335 368.188 138.907C367.616 139.29 367.089 139.692 366.49 140.04L364.746 141.102C363.611 141.727 362.44 142.387 361.323 142.976C360.545 143.396 359.803 143.78 359.052 144.163C359.83 143.503 361.341 142.173 361.448 142.048C362.942 140.275 363.954 138.148 364.389 135.872C364.563 135.682 364.719 135.476 364.854 135.256C365.126 134.848 365.31 134.388 365.392 133.904C365.474 133.421 365.454 132.925 365.331 132.45C365.209 131.976 364.988 131.532 364.682 131.148C364.377 130.764 363.993 130.449 363.558 130.223C360.876 128.937 356.254 131.544 354.431 133.445C354.323 133.561 353.287 134.908 352.643 135.774C352.938 135.203 353.233 134.667 353.537 134.078C354.136 132.927 354.699 131.767 355.325 130.508L356.156 128.643C356.442 128.027 356.674 127.34 356.934 126.688C357.515 125.153 358.033 123.565 358.516 121.958C359.526 122.476 363.137 124.279 365.113 124.386C367.089 124.493 369.583 124.1 370.968 122.512C371.299 122.15 371.549 121.722 371.704 121.257C371.858 120.792 371.912 120.3 371.863 119.812C371.814 119.325 371.663 118.853 371.42 118.428C371.176 118.003 370.846 117.633 370.45 117.344C368.009 115.666 363.03 117.54 360.938 119.129C360.804 119.236 359.437 120.557 358.695 121.289C358.981 120.325 359.267 119.361 359.517 118.37C360.25 115.514 360.903 112.605 361.573 109.704C361.77 108.812 361.984 107.919 362.199 107.027C362.556 107.214 366.802 109.446 369.01 109.571C370.977 109.687 373.48 109.285 374.866 107.696C375.196 107.334 375.447 106.907 375.601 106.442C375.755 105.977 375.81 105.485 375.761 104.997C375.712 104.51 375.561 104.038 375.317 103.613C375.074 103.187 374.743 102.818 374.347 102.529C371.916 100.851 366.928 102.725 364.836 104.314C364.684 104.439 362.708 106.34 362.235 106.848C362.699 104.894 363.173 102.957 363.727 101.065C364.453 98.5063 365.349 95.9988 366.409 93.5593C366.57 93.6486 370.995 95.9869 373.265 96.1208C375.232 96.2368 377.735 95.8352 379.121 94.2465C379.451 93.884 379.701 93.4561 379.854 92.9907C380.008 92.5253 380.061 92.0328 380.012 91.5453C379.962 91.0578 379.81 90.5863 379.565 90.1614C379.321 89.7364 378.99 89.3677 378.593 89.0791C376.162 87.4012 371.174 89.2754 369.091 90.864C368.921 90.989 366.802 93.0417 366.409 93.4344C366.472 93.3005 366.525 93.1399 366.588 93.006C367.715 90.5863 369.055 88.2716 370.593 86.0892C371.424 84.8665 372.291 83.7509 373.158 82.6889C373.936 83.2065 377.52 85.5537 379.55 85.8929C381.579 86.232 384.019 86.0982 385.575 84.6702C385.943 84.346 386.238 83.9481 386.442 83.5024C386.646 83.0566 386.754 82.573 386.758 82.083C386.762 81.593 386.663 81.1076 386.467 80.6584C386.27 80.2092 385.982 79.8063 385.619 79.4759C383.393 77.5481 378.227 78.8601 375.974 80.2256C375.849 80.3059 374.687 81.1984 373.847 81.8588C374.249 81.3858 374.651 80.886 375.035 80.4398C376.501 78.753 377.95 77.2982 379.237 76.022C379.97 75.2991 380.658 74.6565 381.302 74.0674C382.33 74.1835 386.495 74.594 388.453 73.9693C390.411 73.3445 392.547 72.0772 393.235 70.1137C393.411 69.657 393.489 69.1684 393.465 68.6797C393.44 68.1909 393.312 67.7128 393.091 67.2763C392.869 66.8397 392.558 66.4544 392.178 66.1453C391.798 65.8362 391.357 65.6101 390.884 65.4817C388.006 64.7945 384.037 68.3377 382.66 70.5867C382.544 70.7831 381.042 74.0407 381.096 74.0407H381.159C380.524 74.594 379.854 75.2009 379.138 75.8703C377.815 77.1197 376.341 78.5477 374.839 80.2077C373.197 81.9797 371.66 83.8452 370.235 85.7947C368.629 87.974 367.22 90.2917 366.025 92.7204V92.8096C366.15 91.9172 366.418 89.5521 366.418 89.3646C366.418 86.6872 364.863 81.6446 362.047 80.7432C361.576 80.6052 361.081 80.5681 360.595 80.6341C360.109 80.7002 359.642 80.8681 359.225 81.1267C358.808 81.3854 358.451 81.729 358.176 82.135C357.901 82.5411 357.716 83.0005 357.631 83.4832C357.193 85.7412 358.427 87.9634 359.714 89.445Z" fill="#263238"/>
    <path d="M407.136 111.998C407.136 112.043 410.104 110.008 410.274 109.856C412.258 108.071 415.066 103.609 413.85 100.887C413.642 100.444 413.343 100.05 412.973 99.7293C412.603 99.4091 412.169 99.1701 411.701 99.0279C411.232 98.8857 410.739 98.8434 410.253 98.9038C409.767 98.9642 409.299 99.1259 408.879 99.3784C407.091 100.396 406.197 102.806 405.902 104.733C405.616 107.036 407.136 111.989 407.136 111.998Z" fill="#263238"/>
    <path d="M368.581 4.20367H76.844V283.302H368.581V4.20367Z" fill="#263238"/>
    <path d="M368.581 283.748H76.8439C76.7254 283.748 76.6117 283.701 76.5279 283.617C76.4441 283.534 76.397 283.42 76.397 283.302V4.2036C76.397 4.08525 76.4441 3.97175 76.5279 3.88806C76.6117 3.80438 76.7254 3.75735 76.8439 3.75735H368.581C368.7 3.75735 368.814 3.80438 368.897 3.88806C368.981 3.97175 369.028 4.08525 369.028 4.2036V283.302C369.028 283.42 368.981 283.534 368.897 283.617C368.814 283.701 368.7 283.748 368.581 283.748ZM77.2909 282.856H368.134V4.64984H77.2909V282.856Z" fill="#263238"/>
    <path d="M373.426 0.44632H81.689V279.544H373.426V0.44632Z" fill="#171717"/>
    <path d="M373.426 279.991H81.6889C81.5704 279.991 81.4567 279.944 81.3729 279.86C81.289 279.776 81.2419 279.663 81.2419 279.544V0.446243C81.2419 0.327892 81.289 0.214388 81.3729 0.130701C81.4567 0.0470144 81.5704 0 81.6889 0H373.426C373.545 0 373.659 0.0470144 373.742 0.130701C373.826 0.214388 373.873 0.327892 373.873 0.446243V279.544C373.871 279.662 373.823 279.774 373.74 279.858C373.656 279.941 373.544 279.988 373.426 279.991ZM82.1359 279.098H372.979V0.892486H82.1359V279.098Z" fill="#263238"/>
    <path d="M225.001 265.176C224.883 265.173 224.771 265.126 224.688 265.042C224.604 264.959 224.556 264.847 224.554 264.729V13.9408C224.556 13.8232 224.604 13.711 224.688 13.6278C224.771 13.5446 224.883 13.4969 225.001 13.4946C225.12 13.4946 225.233 13.5416 225.317 13.6253C225.401 13.709 225.448 13.8225 225.448 13.9408V264.729C225.448 264.848 225.401 264.961 225.317 265.045C225.233 265.129 225.12 265.176 225.001 265.176Z" fill="#263238"/>
    <g opacity="0.2">
        <path d="M259.729 52.8086H240.707V61.4389H259.729V52.8086Z" fill="#4C4C4C"/>
        <path d="M270.367 42.0809H251.345V50.7112H270.367V42.0809Z" fill="#4C4C4C"/>
        <path d="M281.943 52.8086H262.921V61.4389H281.943V52.8086Z" fill="#4C4C4C"/>
        <path d="M315.054 23.1065H296.031V31.7369H315.054V23.1065Z" fill="#4C4C4C"/>
        <path d="M325.691 12.3699H306.669V21.0003H325.691V12.3699Z" fill="#4C4C4C"/>
        <path d="M337.268 23.1065H318.245V31.7369H337.268V23.1065Z" fill="#4C4C4C"/>
        <path d="M281.943 80.3596H262.921V88.9899H281.943V80.3596Z" fill="#4C4C4C"/>
        <path d="M292.581 69.6229H273.559V78.2532H292.581V69.6229Z" fill="#4C4C4C"/>
        <path d="M304.157 80.3596H285.135V88.9899H304.157V80.3596Z" fill="#4C4C4C"/>
        <path d="M341.424 161.567H322.402V170.197H341.424V161.567Z" fill="#4C4C4C"/>
        <path d="M352.062 150.83H333.039V159.46H352.062V150.83Z" fill="#4C4C4C"/>
        <path d="M363.638 161.567H344.615V170.197H363.638V161.567Z" fill="#4C4C4C"/>
        <path d="M341.424 251.003H322.402V259.633H341.424V251.003Z" fill="#4C4C4C"/>
        <path d="M352.062 240.266H333.039V248.897H352.062V240.266Z" fill="#4C4C4C"/>
        <path d="M363.638 251.003H344.615V259.633H363.638V251.003Z" fill="#4C4C4C"/>
        <path d="M264.744 181.237H245.722V189.867H264.744V181.237Z" fill="#4C4C4C"/>
        <path d="M275.382 170.509H256.359V179.14H275.382V170.509Z" fill="#4C4C4C"/>
        <path d="M286.958 181.237H267.936V189.867H286.958V181.237Z" fill="#4C4C4C"/>
        <path d="M264.744 212.367H245.722V220.998H264.744V212.367Z" fill="#4C4C4C"/>
        <path d="M275.382 201.631H256.359V210.261H275.382V201.631Z" fill="#4C4C4C"/>
        <path d="M286.958 212.367H267.936V220.998H286.958V212.367Z" fill="#4C4C4C"/>
        <path d="M309.529 212.367H290.507V220.998H309.529V212.367Z" fill="#4C4C4C"/>
        <path d="M320.167 201.631H301.145V210.261H320.167V201.631Z" fill="#4C4C4C"/>
        <path d="M331.743 212.367H312.721V220.998H331.743V212.367Z" fill="#4C4C4C"/>
    </g>
    <path d="M179.411 114.445H125.669V150.108H179.411V114.445Z" fill="#397DF6"/>
    <path d="M179.411 150.555H125.669C125.551 150.555 125.437 150.508 125.353 150.424C125.269 150.34 125.222 150.227 125.222 150.108V114.409C125.222 114.291 125.269 114.177 125.353 114.093C125.437 114.01 125.551 113.963 125.669 113.963H179.411C179.53 113.963 179.644 114.01 179.727 114.093C179.811 114.177 179.858 114.291 179.858 114.409V150.108C179.858 150.227 179.811 150.34 179.727 150.424C179.644 150.508 179.53 150.555 179.411 150.555ZM126.116 149.662H178.964V114.855H126.116V149.662Z" fill="#263238"/>
    <path d="M179.411 114.445L152.54 132.276L125.669 114.445H179.411Z" fill="#263238"/>
    <path d="M152.54 132.723C152.452 132.721 152.366 132.696 152.29 132.651L125.419 114.802C125.341 114.747 125.281 114.67 125.249 114.58C125.217 114.491 125.214 114.393 125.24 114.302C125.269 114.211 125.326 114.131 125.403 114.075C125.481 114.019 125.574 113.989 125.669 113.99H179.411C179.506 113.991 179.598 114.022 179.674 114.078C179.749 114.135 179.805 114.214 179.833 114.304C179.861 114.395 179.859 114.492 179.829 114.581C179.798 114.67 179.739 114.748 179.662 114.802L152.791 132.651C152.715 132.696 152.629 132.721 152.54 132.723ZM127.144 114.873L152.54 131.741L177.928 114.891L127.144 114.873Z" fill="#263238"/>
    <path d="M132.794 119.371V96.3274H172.233V119.184L152.54 132.277L132.794 119.371Z" fill="white"/>
    <path d="M152.541 132.723C152.452 132.721 152.366 132.696 152.29 132.651L132.553 119.746C132.491 119.705 132.44 119.649 132.404 119.584C132.368 119.518 132.349 119.446 132.347 119.371V96.3272C132.347 96.2088 132.394 96.0953 132.478 96.0117C132.562 95.928 132.676 95.881 132.794 95.881H172.207C172.325 95.881 172.439 95.928 172.523 96.0117C172.607 96.0953 172.654 96.2088 172.654 96.3272V119.184C172.655 119.258 172.637 119.331 172.603 119.396C172.568 119.461 172.518 119.517 172.457 119.559L152.791 132.651C152.715 132.696 152.629 132.721 152.541 132.723ZM133.241 119.13L152.541 131.741L171.787 118.952V96.7467H133.241V119.13Z" fill="#263238"/>
    <path d="M164.054 104.779H140.249C140.131 104.779 140.017 104.732 139.933 104.649C139.849 104.565 139.802 104.451 139.802 104.333C139.802 104.215 139.849 104.101 139.933 104.017C140.017 103.934 140.131 103.886 140.249 103.886H164.054C164.173 103.886 164.286 103.934 164.37 104.017C164.454 104.101 164.501 104.215 164.501 104.333C164.501 104.451 164.454 104.565 164.37 104.649C164.286 104.732 164.173 104.779 164.054 104.779Z" fill="#263238"/>
    <path d="M164.054 110.741H140.249C140.131 110.741 140.017 110.694 139.933 110.611C139.849 110.527 139.802 110.413 139.802 110.295C139.802 110.176 139.849 110.063 139.933 109.979C140.017 109.895 140.131 109.848 140.249 109.848H164.054C164.173 109.848 164.286 109.895 164.37 109.979C164.454 110.063 164.501 110.176 164.501 110.295C164.501 110.413 164.454 110.527 164.37 110.611C164.286 110.694 164.173 110.741 164.054 110.741Z" fill="#263238"/>
    <path d="M164.054 116.73H140.249C140.131 116.73 140.017 116.683 139.933 116.599C139.849 116.515 139.802 116.402 139.802 116.283C139.802 116.165 139.849 116.051 139.933 115.968C140.017 115.884 140.131 115.837 140.249 115.837H164.054C164.173 115.837 164.286 115.884 164.37 115.968C164.454 116.051 164.501 116.165 164.501 116.283C164.501 116.402 164.454 116.515 164.37 116.599C164.286 116.683 164.173 116.73 164.054 116.73Z" fill="#263238"/>
    <path d="M125.669 150.108L152.603 127.716L179.411 150.108H125.669Z" fill="#397DF6"/>
    <path d="M179.411 150.555H125.669C125.578 150.554 125.49 150.525 125.416 150.473C125.341 150.42 125.285 150.346 125.254 150.261C125.223 150.176 125.218 150.083 125.242 149.995C125.265 149.907 125.314 149.828 125.383 149.769L152.317 127.368C152.397 127.301 152.498 127.264 152.603 127.264C152.707 127.264 152.809 127.301 152.889 127.368L179.706 149.76C179.776 149.819 179.825 149.898 179.848 149.986C179.871 150.074 179.867 150.167 179.836 150.252C179.805 150.337 179.748 150.411 179.674 150.464C179.6 150.516 179.511 150.545 179.42 150.546L179.411 150.555ZM126.903 149.662H178.178L152.603 128.296L126.903 149.662Z" fill="#263238"/>
    <path d="M284.554 145.538C284.554 145.538 281.613 161.549 281.166 166.288C280.719 171.027 280.272 190.305 283.651 203.38C285.671 211.231 288.465 218.863 291.991 226.165C291.991 226.165 294.244 235.411 295.567 237.892C296.89 240.373 308.216 259.544 308.216 259.544C308.216 259.544 307.536 267.434 307.089 268.79C306.642 270.147 305.051 278.482 305.507 280.964C305.963 283.445 306.633 285.024 305.954 288.184C305.275 291.343 304.372 294.494 305.954 297.207C307.536 299.92 311.38 300.134 312.506 298.555C313.519 297.258 314.261 295.771 314.688 294.183C315.115 292.595 315.218 290.937 314.992 289.308C314.312 284.846 312.051 278.938 312.506 276.457C312.967 274.506 313.647 272.613 314.536 270.816C314.536 270.816 323.126 288.407 323.573 289.764C324.02 291.12 324.932 296.752 325.361 298.555C325.79 300.357 328.302 297.876 329.205 296.77C330.108 295.663 333.496 290.906 332.78 287.747C332.065 284.587 330.099 278.956 330.099 278.956L333.469 283.418C333.535 283.522 333.637 283.599 333.756 283.632C333.874 283.666 334.001 283.654 334.112 283.6C334.223 283.546 334.31 283.453 334.356 283.338C334.403 283.224 334.405 283.097 334.363 282.981C333.728 280.812 332.87 277.938 332.575 277.394C332.119 276.501 331.895 273.556 330.09 271.084C328.284 268.612 323.314 270.852 323.314 270.852L319.47 258.678C319.47 258.678 326.478 235.679 325.12 228.004C323.761 220.328 323.09 214.705 323.537 213.126C323.984 211.546 332.575 187.752 332.575 182.781C332.575 177.81 332.798 165.869 330.09 159.327C328.246 154.992 326.132 150.777 323.761 146.707L284.554 145.538Z" fill="white"/>
    <path d="M310.173 299.991H309.941C309.067 299.95 308.217 299.695 307.464 299.25C306.712 298.805 306.08 298.183 305.623 297.439C304.094 294.815 304.729 291.816 305.391 288.916L305.569 288.094C305.984 286.233 305.929 284.298 305.408 282.463C305.31 282.017 305.212 281.57 305.113 281.053C304.649 278.465 306.258 270.031 306.714 268.656C307.23 265.678 307.597 262.675 307.813 259.66C306.839 258.009 296.514 240.471 295.227 238.115C293.94 235.759 291.785 227.147 291.589 226.334C288.063 219.029 285.257 211.398 283.213 203.549C279.887 190.689 280.227 171.473 280.719 166.297C281.166 161.594 284.08 145.672 284.115 145.511L284.178 145.136H284.562L324.109 146.27L324.234 146.484C326.612 150.577 328.735 154.812 330.59 159.166C333.156 165.36 333.129 176.409 333.111 181.719V182.79C333.111 186.895 327.461 203.317 325.066 210.296C324.529 211.84 324.172 212.974 324.064 213.251C323.832 214.054 323.734 217.044 325.656 227.932C326.979 235.393 320.668 256.599 320.042 258.678L323.689 270.28C325.03 269.763 328.874 268.549 330.545 270.843C331.597 272.405 332.331 274.157 332.709 276.001C332.797 276.418 332.92 276.827 333.075 277.224C333.299 277.679 333.906 279.58 334.863 282.882C334.928 283.094 334.916 283.322 334.829 283.526C334.742 283.729 334.585 283.896 334.387 283.995C334.189 284.094 333.962 284.121 333.746 284.069C333.531 284.017 333.34 283.891 333.209 283.712L331.52 281.49C332.154 283.391 332.95 285.952 333.307 287.737C334.103 291.459 329.785 296.903 329.607 297.126C329.428 297.35 327.247 300.018 325.843 299.715C325.614 299.666 325.406 299.548 325.246 299.377C325.086 299.207 324.983 298.991 324.949 298.76C324.753 297.974 324.476 296.493 324.181 294.922C323.814 292.959 323.394 290.745 323.153 290.004C322.813 288.996 317.593 278.206 314.544 271.949C313.84 273.448 313.304 275.019 312.944 276.635C312.694 278.018 313.382 280.687 314.115 283.516C314.654 285.435 315.093 287.38 315.429 289.344C315.67 291.028 315.567 292.744 315.128 294.388C314.689 296.032 313.921 297.57 312.873 298.911C312.534 299.284 312.115 299.575 311.648 299.763C311.18 299.95 310.676 300.028 310.173 299.991ZM284.92 146.002C284.473 148.447 282.015 162.067 281.613 166.342C281.121 171.473 280.781 190.528 284.08 203.282C286.108 211.096 288.895 218.695 292.402 225.969V226.058C292.402 226.156 294.664 235.277 295.978 237.66C297.292 240.043 308.492 259.08 308.618 259.303L308.689 259.419V259.562C308.689 259.892 308.001 267.523 307.536 268.915C307.071 270.307 305.534 278.456 305.972 280.865C306.061 281.356 306.159 281.811 306.249 282.249C306.799 284.207 306.857 286.269 306.419 288.255L306.24 289.076C305.605 291.941 305.015 294.636 306.365 296.957C306.741 297.575 307.264 298.092 307.888 298.461C308.512 298.83 309.216 299.04 309.941 299.072C310.347 299.127 310.76 299.083 311.146 298.945C311.532 298.807 311.879 298.578 312.158 298.278C313.141 297.029 313.862 295.595 314.277 294.061C314.692 292.528 314.792 290.926 314.571 289.353C314.294 287.568 313.775 285.551 313.275 283.614C312.515 280.687 311.8 277.929 312.086 276.349C312.546 274.355 313.242 272.423 314.16 270.593L314.562 269.781L314.955 270.593C315.313 271.316 323.564 288.228 324.02 289.594C324.279 290.388 324.681 292.548 325.075 294.636C325.37 296.189 325.638 297.653 325.834 298.421C325.879 298.599 325.942 298.697 326.013 298.715C326.487 298.813 327.855 297.733 328.892 296.448C330.358 294.61 332.986 290.451 332.414 287.8C331.752 284.703 329.732 279.116 329.732 279.062L328.74 276.314L333.88 283.088L334.398 282.918L333.969 283.043C332.726 278.786 332.351 277.759 332.235 277.527C332.046 277.076 331.902 276.606 331.806 276.126C331.453 274.395 330.767 272.75 329.785 271.28C328.221 269.12 323.609 271.173 323.528 271.2L323.072 271.405L319.041 258.616V258.482C319.112 258.259 326.004 235.5 324.681 228.021C323.188 219.587 322.661 214.509 323.108 212.938C323.197 212.635 323.564 211.564 324.118 209.948C326.308 203.585 332.163 186.681 332.163 182.728V181.657C332.163 176.409 332.208 165.476 329.714 159.452C327.911 155.209 325.848 151.08 323.537 147.091L284.92 146.002Z" fill="#263238"/>
    <path d="M322.589 268.228L319.559 258.643C319.559 258.643 326.567 235.643 325.209 227.968C323.85 220.292 323.179 214.67 323.626 213.09C324.073 211.51 331.868 187.654 332.664 182.746C334.074 174.85 333.213 166.717 330.179 159.291C328.335 154.957 326.221 150.742 323.85 146.671L284.518 145.538C284.518 145.538 281.577 161.549 281.13 166.288C280.683 171.027 280.236 190.305 283.615 203.38C285.646 211.232 288.452 218.865 291.991 226.165C291.991 226.165 294.243 235.411 295.566 237.892C296.889 240.373 308.215 259.544 308.215 259.544C308.215 259.544 307.822 264.078 307.438 266.862C309 267.999 310.817 268.737 312.73 269.013L314.517 270.798C314.517 270.798 319.702 273.074 322.589 268.228Z" fill="#263238"/>
    <path d="M317.342 271.78C316.339 271.776 315.345 271.588 314.41 271.226L314.276 271.137L312.587 269.441C310.65 269.133 308.813 268.375 307.223 267.228L306.982 267.076L307.026 266.8C307.366 264.336 307.715 260.436 307.786 259.66C306.812 258.009 296.487 240.471 295.2 238.115C293.913 235.759 291.758 227.147 291.562 226.334C288.045 219.028 285.249 211.397 283.213 203.549C279.887 190.689 280.227 171.473 280.719 166.297C281.166 161.594 284.08 145.672 284.115 145.511L284.178 145.136H284.562L324.109 146.27L324.234 146.484C326.612 150.577 328.735 154.812 330.59 159.166C333.64 166.66 334.513 174.859 333.111 182.826C332.476 186.762 327.515 202.327 325.137 209.815C324.556 211.644 324.154 212.894 324.064 213.215C323.832 214.018 323.734 217.008 325.656 227.896C326.979 235.357 320.668 256.563 320.042 258.642L323.081 268.29L322.983 268.46C322.441 269.479 321.628 270.329 320.632 270.915C319.637 271.501 318.498 271.8 317.342 271.78ZM314.848 270.441C315.474 270.691 319.613 272.146 322.098 268.174L319.094 258.642V258.509C319.166 258.285 326.058 235.527 324.735 228.048C323.242 219.614 322.715 214.536 323.162 212.965C323.251 212.644 323.653 211.385 324.243 209.547C326.433 202.666 331.555 186.547 332.19 182.683C333.572 174.871 332.72 166.829 329.732 159.478C327.931 155.234 325.868 151.106 323.555 147.117L284.884 146.002C284.437 148.447 281.979 162.067 281.577 166.342C281.085 171.473 280.745 190.528 284.044 203.282C286.072 211.096 288.859 218.695 292.366 225.969V226.058C292.366 226.156 294.628 235.277 295.942 237.66C297.256 240.043 308.457 259.08 308.582 259.303L308.653 259.419V259.562C308.653 259.606 308.278 263.846 307.911 266.621C309.348 267.643 311.01 268.304 312.756 268.549H312.917L314.848 270.441Z" fill="#263238"/>
    <path d="M316.753 249.637C316.654 249.638 316.559 249.606 316.481 249.547C316.403 249.487 316.348 249.402 316.323 249.307C315.295 245.362 313.892 240.052 313.034 237.116C311.478 231.761 306.544 218.115 306.49 217.972C306.486 217.936 306.486 217.901 306.49 217.865L302.441 176.927L294.941 172.08C294.842 172.016 294.772 171.916 294.747 171.8C294.721 171.685 294.743 171.564 294.807 171.465C294.874 171.367 294.977 171.298 295.093 171.273C295.21 171.248 295.331 171.269 295.433 171.331L303.111 176.293C303.167 176.33 303.213 176.379 303.247 176.436C303.281 176.493 303.302 176.557 303.308 176.623L307.366 217.722C307.706 218.659 312.39 231.672 313.91 236.866C314.804 239.811 316.172 245.13 317.2 249.084C317.23 249.198 317.214 249.319 317.155 249.421C317.097 249.522 317 249.597 316.887 249.629L316.753 249.637Z" fill="white"/>
    <path d="M318.433 256.152C318.334 256.152 318.238 256.12 318.159 256.06C318.08 256.001 318.022 255.917 317.995 255.822C317.995 255.822 317.664 254.501 317.155 252.52C317.125 252.401 317.144 252.276 317.207 252.172C317.269 252.067 317.371 251.992 317.49 251.962C317.608 251.932 317.734 251.951 317.839 252.014C317.943 252.077 318.019 252.178 318.049 252.297C318.558 254.278 318.889 255.599 318.889 255.599C318.904 255.656 318.907 255.715 318.899 255.773C318.891 255.831 318.871 255.887 318.841 255.938C318.811 255.988 318.772 256.033 318.725 256.068C318.678 256.103 318.624 256.129 318.567 256.143L318.433 256.152Z" fill="white"/>
    <path d="M305.105 178.015H304.962C304.906 177.996 304.854 177.966 304.81 177.927C304.766 177.888 304.73 177.841 304.704 177.787C304.678 177.734 304.663 177.677 304.66 177.618C304.657 177.559 304.665 177.5 304.685 177.444C305.579 174.883 307.447 171.268 310.362 166.734C310.389 166.677 310.428 166.627 310.476 166.586C310.524 166.546 310.58 166.516 310.641 166.498C310.702 166.481 310.765 166.476 310.828 166.485C310.89 166.494 310.95 166.516 311.003 166.549C311.057 166.583 311.102 166.628 311.137 166.68C311.172 166.733 311.196 166.792 311.206 166.854C311.216 166.916 311.213 166.98 311.197 167.041C311.181 167.101 311.152 167.158 311.113 167.207C308.871 170.509 307 174.046 305.534 177.756C305.497 177.837 305.436 177.905 305.359 177.952C305.283 177.998 305.194 178.02 305.105 178.015Z" fill="white"/>
    <path d="M312.623 164.503C312.533 164.504 312.445 164.476 312.372 164.423C312.274 164.357 312.206 164.256 312.183 164.141C312.159 164.025 312.182 163.905 312.247 163.807C313.526 161.915 314.446 160.639 314.455 160.621C314.525 160.525 314.631 160.461 314.748 160.442C314.865 160.424 314.985 160.453 315.081 160.523C315.177 160.592 315.242 160.697 315.26 160.815C315.278 160.932 315.249 161.051 315.18 161.147C315.18 161.147 314.285 162.424 312.989 164.307C312.949 164.367 312.894 164.416 312.83 164.45C312.766 164.484 312.695 164.502 312.623 164.503Z" fill="white"/>
    <path d="M332.664 277.358C332.208 276.465 331.985 273.52 330.179 271.048C329.911 270.704 329.57 270.423 329.181 270.225C328.791 270.028 328.363 269.919 327.926 269.905C329.464 273.788 328.034 276.894 328.82 279.839C329.714 283.221 330.402 286.149 329.053 288.63C327.703 291.111 324.306 292.467 324.306 292.467H324.243C324.664 294.645 325.137 297.385 325.432 298.545C325.888 300.33 328.373 297.867 329.276 296.76C330.179 295.654 333.567 290.897 332.852 287.737C332.137 284.578 330.17 278.946 330.17 278.946L334.085 284.105C334.132 284.165 334.198 284.207 334.272 284.224C334.346 284.241 334.424 284.232 334.492 284.198C334.56 284.165 334.615 284.109 334.647 284.04C334.678 283.971 334.685 283.893 334.666 283.819C334.005 281.624 332.977 277.982 332.664 277.358Z" fill="#263238"/>
    <path d="M326.103 299.643C326.022 299.652 325.942 299.652 325.861 299.643C325.632 299.595 325.424 299.477 325.264 299.306C325.104 299.135 325.001 298.92 324.967 298.688C324.771 297.903 324.494 296.421 324.199 294.86C324.056 294.092 323.913 293.307 323.77 292.593L323.68 292.146L324.127 292.066C324.127 292.066 327.363 290.754 328.597 288.443C329.83 286.131 329.267 283.498 328.329 279.982C328.046 278.666 327.974 277.313 328.114 275.975C328.345 273.992 328.116 271.982 327.444 270.102L327.175 269.424L327.899 269.486C328.4 269.503 328.89 269.63 329.335 269.858C329.78 270.087 330.169 270.411 330.474 270.807C331.525 272.369 332.26 274.122 332.637 275.966C332.726 276.383 332.848 276.791 333.004 277.188C333.245 277.688 333.898 279.866 335.042 283.712C335.09 283.886 335.076 284.071 335.002 284.236C334.929 284.401 334.8 284.535 334.638 284.615C334.476 284.695 334.292 284.717 334.116 284.676C333.94 284.635 333.784 284.534 333.674 284.391L331.448 281.454C332.083 283.355 332.879 285.917 333.236 287.702C334.032 291.424 329.714 296.868 329.535 297.091C329.357 297.314 327.488 299.643 326.103 299.643ZM324.753 292.798C324.869 293.414 324.994 294.065 325.11 294.708C325.405 296.252 325.674 297.724 325.87 298.483C325.915 298.662 325.978 298.76 326.049 298.778C326.523 298.876 327.891 297.796 328.927 296.511C330.393 294.672 333.022 290.513 332.449 287.863C331.788 284.766 329.768 279.179 329.768 279.125L329.035 277.081C328.98 277.98 329.058 278.883 329.267 279.759C330.224 283.329 330.849 286.319 329.446 288.88C328.239 291.013 325.62 292.37 324.753 292.798ZM329.035 276.733L334.058 283.347C333.12 280.089 332.467 277.992 332.271 277.59C332.082 277.138 331.938 276.669 331.842 276.189C331.489 274.458 330.803 272.812 329.821 271.343C329.538 270.93 329.122 270.628 328.641 270.486C329.135 272.277 329.293 274.144 329.106 275.992C329.053 276.225 329.044 276.465 329.035 276.733Z" fill="#263238"/>
    <path d="M315.099 289.799C314.768 290.87 314.339 292.191 313.919 293.369C313.025 295.85 310.075 296.047 308.046 293.824C306.769 292.216 306.054 290.235 306.008 288.184C305.328 291.343 304.425 294.494 306.008 297.207C307.59 299.92 311.434 300.134 312.56 298.554C314.493 296.066 315.401 292.934 315.099 289.799Z" fill="#263238"/>
    <path d="M310.173 299.991H309.941C309.067 299.95 308.217 299.695 307.465 299.25C306.712 298.805 306.08 298.183 305.623 297.439C304.095 294.815 304.729 291.816 305.391 288.916L306.446 284.025V288.193C306.491 290.138 307.165 292.016 308.368 293.548C308.748 294.041 309.25 294.427 309.826 294.666C310.401 294.906 311.03 294.991 311.648 294.913C312.075 294.822 312.471 294.619 312.794 294.326C313.117 294.033 313.357 293.66 313.49 293.244C313.847 292.262 314.24 291.066 314.67 289.674L315.304 287.621L315.537 289.763C315.855 293.006 314.918 296.247 312.918 298.822C312.583 299.217 312.161 299.529 311.684 299.732C311.208 299.935 310.69 300.024 310.173 299.991ZM305.927 290.683C305.48 292.95 305.292 295.092 306.392 296.975C306.768 297.593 307.291 298.11 307.915 298.479C308.539 298.847 309.243 299.057 309.968 299.09C310.374 299.145 310.787 299.101 311.173 298.963C311.559 298.825 311.906 298.596 312.185 298.296C313.413 296.673 314.237 294.783 314.589 292.78L314.33 293.521C314.145 294.081 313.815 294.583 313.374 294.977C312.933 295.37 312.397 295.64 311.818 295.761C311.047 295.869 310.262 295.774 309.539 295.486C308.816 295.198 308.181 294.727 307.697 294.119C306.85 293.125 306.244 291.949 305.927 290.683Z" fill="#263238"/>
    <path d="M281.184 90.0876C281.184 90.0876 277.751 91.2835 277.894 91.7298C278.037 92.176 272.414 120.289 272.414 120.289C272.414 120.289 268.418 130.642 268.839 134.337C269.259 138.032 272.414 142.468 275.945 142.468C277.09 142.492 278.22 142.202 279.212 141.629C280.203 141.056 281.018 140.222 281.568 139.219C282.31 138.184 284.831 133.302 284.831 133.302C284.831 133.302 283.937 142.619 283.642 143.503C283.347 144.386 281.854 146.752 282.605 147.492C283.745 148.458 285.05 149.211 286.458 149.715C293.905 151.248 301.509 151.892 309.109 151.633C319.184 151.044 325.253 148.385 325.253 148.385C325.586 147.277 325.983 146.189 326.442 145.127C326.737 144.681 327.336 143.949 327.336 143.949C327.336 143.949 336.812 142.914 337.402 142.316C337.992 141.718 339.628 139.219 339.476 135.221C339.324 131.222 340.808 96.6384 340.074 95.8977C338.741 94.9523 337.333 94.1166 335.864 93.3987L318.71 83.8223L293.126 87.1781L281.184 90.0876Z" fill="#397DF6"/>
    <path d="M305.578 152.151C299.121 152.09 292.685 151.409 286.359 150.116C284.881 149.592 283.512 148.803 282.319 147.787C281.541 147.01 282.319 145.44 282.873 144.217C283.014 143.926 283.139 143.628 283.248 143.324C283.409 142.825 283.838 138.942 284.142 135.506C283.356 136.988 282.355 138.826 281.917 139.442L281.782 139.629C281.187 140.645 280.33 141.482 279.3 142.053C278.27 142.625 277.105 142.91 275.927 142.878C272.191 142.878 268.856 138.416 268.374 134.355C267.918 130.589 271.788 120.521 271.949 120.075C274.086 109.365 277.313 93.0239 277.393 91.7744C277.295 91.4263 277.393 90.8819 280.969 89.6414H281.014L292.974 86.7051L318.603 83.3493C318.698 83.334 318.797 83.3529 318.88 83.4029L336.034 92.9703C337.543 93.7031 338.984 94.5661 340.343 95.5496C340.799 96.0048 340.843 99.6283 340.191 121.387C339.994 127.991 339.824 133.703 339.878 135.167C340.039 139.308 338.34 141.932 337.679 142.601C337.017 143.271 331.144 143.931 327.524 144.333C327.345 144.565 326.979 145.029 326.773 145.341C326.335 146.365 325.959 147.414 325.647 148.483C325.625 148.542 325.592 148.596 325.549 148.643C325.506 148.689 325.454 148.725 325.396 148.751C325.146 148.867 319.139 151.428 309.1 152.044C307.983 152.124 306.785 152.151 305.578 152.151ZM284.84 132.829H284.965C285.064 132.859 285.151 132.922 285.209 133.009C285.268 133.095 285.295 133.198 285.287 133.302C285.188 134.257 284.393 142.691 284.08 143.601C283.99 143.842 283.838 144.172 283.669 144.547C283.347 145.216 282.596 146.805 282.936 147.135C284.021 148.047 285.258 148.76 286.592 149.242C293.993 150.763 301.549 151.401 309.1 151.143C314.499 150.91 319.829 149.85 324.905 148.001C325.22 146.919 325.611 145.86 326.076 144.833C326.38 144.386 326.97 143.655 326.97 143.619C327.007 143.573 327.053 143.535 327.105 143.507C327.157 143.479 327.215 143.463 327.274 143.458C331.69 142.976 336.57 142.271 337.107 141.941C337.634 141.414 339.163 138.996 339.02 135.194C338.966 133.694 339.136 127.974 339.333 121.351C339.619 111.829 340.048 97.5042 339.69 96.1119C338.404 95.2249 337.053 94.4344 335.65 93.7468L318.612 84.2418L293.18 87.5708L281.282 90.4981C280.241 90.8278 279.24 91.2707 278.296 91.819C278.207 92.7115 277.483 97.0847 272.825 120.334C272.763 120.512 268.856 130.696 269.25 134.239C269.643 137.782 272.691 141.977 275.918 141.977C276.952 142.007 277.974 141.756 278.876 141.252C279.778 140.747 280.526 140.008 281.04 139.112L281.184 138.907C281.89 137.916 284.384 133.097 284.402 133.052C284.445 132.976 284.509 132.914 284.587 132.875C284.665 132.835 284.753 132.819 284.84 132.829ZM278.305 91.5959C278.316 91.6639 278.316 91.7332 278.305 91.8012C278.333 91.7366 278.34 91.6644 278.323 91.5959H278.305Z" fill="#263238"/>
    <path d="M284.84 106.831C284.089 103.323 281.04 97.7183 281.014 97.6559L281.8 97.2364C281.926 97.4684 284.938 103.011 285.716 106.643L284.84 106.831Z" fill="#263238"/>
    <path d="M280.371 125.582C280.3 125.581 280.23 125.565 280.167 125.534C280.104 125.503 280.048 125.458 280.004 125.403C278.591 123.431 274.756 122.922 274.712 122.913C274.653 122.906 274.596 122.887 274.545 122.857C274.494 122.828 274.449 122.788 274.412 122.741C274.376 122.695 274.35 122.641 274.334 122.584C274.319 122.527 274.315 122.468 274.323 122.409C274.33 122.35 274.349 122.294 274.379 122.243C274.408 122.191 274.448 122.146 274.495 122.11C274.542 122.074 274.595 122.048 274.652 122.032C274.709 122.017 274.769 122.013 274.828 122.021C274.998 122.021 279.092 122.583 280.737 124.868C280.771 124.916 280.796 124.97 280.809 125.027C280.822 125.085 280.824 125.144 280.814 125.202C280.804 125.261 280.783 125.316 280.751 125.366C280.719 125.416 280.678 125.459 280.63 125.493C280.554 125.548 280.464 125.579 280.371 125.582Z" fill="#263238"/>
    <path d="M281.533 124.636C281.446 124.637 281.362 124.613 281.289 124.567C281.216 124.521 281.158 124.455 281.121 124.377C280.54 123.613 279.782 123.001 278.913 122.592C278.808 122.537 278.728 122.443 278.692 122.33C278.656 122.217 278.666 122.095 278.721 121.989C278.775 121.884 278.87 121.805 278.983 121.769C279.096 121.733 279.219 121.743 279.324 121.798C279.548 121.914 281.461 122.931 281.944 123.993C281.99 124.101 281.992 124.223 281.951 124.332C281.909 124.442 281.826 124.532 281.72 124.582C281.662 124.613 281.598 124.631 281.533 124.636Z" fill="#263238"/>
    <path d="M284.84 133.721C284.789 133.73 284.738 133.73 284.688 133.721C284.632 133.702 284.58 133.672 284.536 133.633C284.492 133.594 284.457 133.546 284.432 133.493C284.407 133.439 284.393 133.382 284.391 133.323C284.389 133.264 284.398 133.205 284.42 133.15L285.242 130.812L282.837 125.876L281.139 126.474C281.073 126.501 281.002 126.51 280.932 126.502C280.862 126.495 280.795 126.47 280.737 126.43C280.737 126.43 277.304 124.172 274.998 124.573C272.691 124.975 271.181 128 271.172 128.027C271.12 128.134 271.027 128.215 270.915 128.254C270.803 128.292 270.68 128.285 270.573 128.232C270.466 128.18 270.385 128.088 270.346 127.976C270.307 127.864 270.315 127.741 270.367 127.635C270.439 127.492 272.155 124.172 274.837 123.699C277.188 123.279 280.245 125.064 281.041 125.564L282.909 124.895C283.014 124.86 283.128 124.864 283.23 124.907C283.332 124.949 283.415 125.027 283.463 125.127L286.145 130.589C286.169 130.643 286.182 130.703 286.182 130.763C286.182 130.823 286.169 130.882 286.145 130.937L285.251 133.454C285.215 133.533 285.157 133.6 285.085 133.647C285.012 133.695 284.927 133.72 284.84 133.721Z" fill="#263238"/>
    <path d="M330.376 106.375C330.32 106.388 330.262 106.388 330.206 106.375C330.096 106.328 330.01 106.24 329.965 106.13C329.92 106.02 329.92 105.897 329.964 105.786C330.671 104.144 332.897 99.1105 332.897 99.1105L333.719 99.4765C333.719 99.4765 331.493 104.501 330.787 106.143C330.748 106.217 330.688 106.278 330.615 106.319C330.542 106.361 330.459 106.38 330.376 106.375Z" fill="#263238"/>
    <path d="M327.354 144.369C327.241 144.368 327.132 144.323 327.05 144.244L318.433 136.122C318.391 136.081 318.358 136.031 318.335 135.977C318.312 135.922 318.301 135.864 318.301 135.805C318.301 135.746 318.312 135.688 318.335 135.634C318.358 135.579 318.391 135.53 318.433 135.488C318.474 135.447 318.522 135.414 318.576 135.391C318.63 135.369 318.688 135.357 318.746 135.357C318.804 135.357 318.862 135.369 318.916 135.391C318.969 135.414 319.018 135.447 319.059 135.488L327.676 143.61C327.743 143.671 327.79 143.75 327.811 143.838C327.831 143.926 327.825 144.018 327.792 144.103C327.759 144.187 327.701 144.259 327.626 144.31C327.551 144.36 327.463 144.387 327.372 144.386L327.354 144.369Z" fill="#263238"/>
    <path d="M323.975 143.164C323.908 143.18 323.837 143.18 323.77 143.164L315.143 138.701C315.038 138.647 314.958 138.553 314.922 138.44C314.886 138.327 314.897 138.204 314.951 138.099C315.006 137.994 315.1 137.914 315.213 137.878C315.326 137.842 315.449 137.853 315.554 137.907L324.181 142.37C324.268 142.416 324.337 142.491 324.377 142.581C324.417 142.671 324.426 142.772 324.403 142.868C324.379 142.964 324.324 143.05 324.247 143.111C324.17 143.173 324.074 143.207 323.975 143.208V143.164Z" fill="#263238"/>
    <path d="M290.677 150.554C290.567 150.554 290.46 150.513 290.379 150.438C290.298 150.364 290.248 150.262 290.239 150.152C290.226 150.035 290.261 149.918 290.334 149.826C290.408 149.734 290.515 149.675 290.632 149.661L313.445 147.207C313.503 147.199 313.562 147.204 313.619 147.219C313.675 147.235 313.728 147.262 313.774 147.299C313.82 147.336 313.858 147.381 313.886 147.433C313.914 147.484 313.931 147.541 313.936 147.599C313.949 147.717 313.915 147.834 313.841 147.926C313.767 148.018 313.66 148.077 313.543 148.09L290.731 150.554H290.677Z" fill="#263238"/>
    <path d="M306.866 123.77H306.821C306.762 123.764 306.705 123.747 306.653 123.719C306.601 123.692 306.555 123.654 306.517 123.608C306.48 123.563 306.452 123.51 306.435 123.454C306.418 123.397 306.413 123.338 306.419 123.279C306.571 121.914 309.172 96.4509 309.199 96.1921C309.205 96.1335 309.222 96.0766 309.25 96.0247C309.278 95.9728 309.316 95.9269 309.362 95.8896C309.407 95.8524 309.46 95.8244 309.516 95.8074C309.573 95.7904 309.632 95.7846 309.691 95.7905C309.749 95.7964 309.806 95.8137 309.858 95.8415C309.91 95.8694 309.956 95.9072 309.994 95.9528C310.031 95.9983 310.059 96.0508 310.076 96.1072C310.093 96.1636 310.099 96.2228 310.093 96.2814C310.093 96.5402 307.474 122.003 307.322 123.377C307.306 123.487 307.252 123.587 307.168 123.659C307.084 123.732 306.977 123.771 306.866 123.77Z" fill="#263238"/>
    <path d="M304.711 142.244H304.667C304.608 142.239 304.551 142.222 304.499 142.194C304.447 142.166 304.4 142.128 304.363 142.083C304.326 142.037 304.298 141.985 304.281 141.928C304.264 141.872 304.258 141.812 304.264 141.754L305.033 133.293C305.047 133.177 305.104 133.07 305.194 132.996C305.284 132.921 305.399 132.884 305.516 132.891C305.575 132.896 305.632 132.912 305.685 132.938C305.737 132.965 305.784 133.002 305.822 133.047C305.86 133.092 305.889 133.143 305.907 133.199C305.925 133.255 305.932 133.314 305.927 133.373L305.149 141.834C305.141 141.944 305.091 142.048 305.01 142.124C304.929 142.2 304.822 142.243 304.711 142.244Z" fill="#263238"/>
    <path d="M320.328 79.5294L318.058 85.2681L310.575 93.8003L303.898 85.0003L304.443 73.88L312.846 81.5286L320.328 79.5294Z" fill="white"/>
    <path d="M310.549 94.5143L303.442 85.1432V84.9825L304.041 72.9161L312.98 81.0378L321.079 78.869L318.397 85.5627L310.549 94.5143ZM304.354 84.8487L310.611 93.0863L317.682 85.0539L319.595 80.2167L312.739 82.0552L304.854 74.9153L304.354 84.8487Z" fill="#263238"/>
    <path d="M313.525 44.3121C313.525 44.3121 300.358 49.0691 298.543 52.8086C297.009 56.3447 295.832 60.0252 295.03 63.7951C295.03 64.2502 288.773 66.7492 287.539 68.668C286.306 70.5869 287.647 76.2631 287.539 77.8517C287.432 79.4403 281.639 81.2521 281.067 84.7596C280.68 86.5285 280.72 88.364 281.184 90.1145L291.285 88.5258C291.285 88.5258 297.864 91.1319 301.386 89.7753C304.908 88.4188 305.239 81.618 305.015 79.3511C304.792 77.0842 304.443 73.9069 304.443 73.9069L309.1 60.7517L319.649 57.5744L326.344 63.8218L320.194 79.958C320.194 79.958 318.254 83.876 318.594 84.8934C318.933 85.9109 322.035 86.9372 322.035 86.9372L335.882 93.3988C336.236 92.3424 336.352 91.2209 336.222 90.1145C335.998 88.3295 333.039 84.4472 333.039 83.3137C333.039 82.1803 336.901 77.7625 335.086 73.7998C333.272 69.8372 331.341 67.6774 330.322 65.6425C329.303 63.6076 331.216 59.7432 329.187 54.7631C327.157 49.783 320.444 45.4723 318.63 44.4549C316.815 43.4375 313.525 44.3121 313.525 44.3121Z" fill="#263238"/>
    <path d="M336.123 93.9788L321.821 87.3209C321.311 87.1513 318.531 86.1785 318.147 85.0093C317.763 83.8402 319.291 80.6897 319.774 79.7347L325.799 63.9199L319.541 58.0652L309.449 61.0996L304.908 73.9336C304.971 74.4958 305.266 77.2447 305.462 79.2885C305.659 81.1895 305.552 88.6239 301.556 90.1679C298.132 91.4888 292.179 89.32 291.24 88.963L280.898 90.5873L280.772 90.2482C280.285 88.435 280.239 86.5315 280.638 84.6969C281.005 82.439 283.24 80.895 285.045 79.6544C285.993 79.0029 287.066 78.2621 287.101 77.8694C287.09 77.0805 287.024 76.2932 286.905 75.5133C286.601 73.0322 286.225 69.9442 287.173 68.4805C288.013 67.1775 290.748 65.7316 292.804 64.6785C293.417 64.3765 294.014 64.0429 294.592 63.6789C295.416 59.8985 296.613 56.2093 298.168 52.6656C300.045 48.8101 312.855 44.1424 313.364 43.946C313.499 43.946 316.851 43 318.808 44.0978C318.889 44.0978 327.193 48.8547 329.535 54.6291C330.463 57.081 330.77 59.7235 330.429 62.3223C330.244 63.3738 330.315 64.4542 330.635 65.4728C331.117 66.3075 331.645 67.1149 332.217 67.8914C333.457 69.6934 334.546 71.595 335.471 73.5766C336.874 76.6289 335.149 79.8864 334.121 81.8321C333.846 82.2857 333.626 82.7713 333.469 83.2779C333.785 84.2267 334.23 85.1276 334.792 85.9554C335.628 87.1951 336.253 88.5641 336.642 90.0072C336.788 91.1861 336.663 92.3827 336.275 93.5058L336.123 93.9788ZM319.774 57.0656L326.871 63.6789L320.614 80.0917C319.72 81.9302 318.826 84.2061 319.014 84.7237C319.202 85.2414 320.802 86.0268 322.178 86.5087L335.587 92.7561C335.803 91.905 335.86 91.0218 335.757 90.15C335.35 88.8303 334.747 87.5788 333.969 86.4373C333.075 84.8933 332.53 83.9205 332.53 83.2957C332.655 82.632 332.913 82.0004 333.29 81.4394C334.3 79.5205 335.828 76.62 334.613 73.9603C333.707 72.0228 332.642 70.1632 331.43 68.4002C330.858 67.5706 330.333 66.7095 329.857 65.8209C329.465 64.6733 329.367 63.4461 329.571 62.2509C329.874 59.784 329.567 57.2806 328.677 54.9593C326.425 49.4705 318.397 44.9099 318.317 44.8653C316.743 43.9728 313.802 44.7314 313.561 44.7939C313.016 44.9902 300.537 49.5866 298.847 53.0583C297.336 56.5376 296.174 60.158 295.379 63.8663C295.379 64.2769 295.021 64.4821 293.108 65.4728C291.195 66.4635 288.532 67.8557 287.816 68.9714C287.101 70.087 287.432 73.3178 287.682 75.4062C287.814 76.2418 287.883 77.0861 287.888 77.9319C287.825 78.8244 286.771 79.5205 285.439 80.4398C283.785 81.5822 281.72 83.0012 281.407 84.9022C281.11 86.471 281.11 88.0815 281.407 89.6502L291.24 88.1062L291.356 88.1509C291.419 88.1509 297.819 90.6766 301.136 89.4004C304.452 88.1241 304.711 81.6625 304.479 79.4402C304.247 77.2179 303.916 74.005 303.916 74.005V73.8979V73.8086L308.645 60.4213L319.774 57.0656Z" fill="#263238"/>
    <path d="M318.29 53.4867C318.29 53.4867 308.082 58.0205 307.286 60.1714C306.49 62.3223 304.336 72.3003 304.443 73.88C304.551 75.4597 311.371 83.6259 312.73 83.858C314.089 84.09 321.088 80.0381 322.339 79.1278C323.591 78.2175 327.703 64.5892 327.596 62.4383C327.488 60.2874 319.425 53.6116 318.29 53.4867Z" fill="white"/>
    <path d="M312.819 84.3043H312.658C311.085 84.0455 304.13 75.7007 303.996 73.9247C303.862 72.1486 306.097 62.0992 306.865 60.0287C307.697 57.7617 317.047 53.5581 318.111 53.094L318.218 53.0405H318.334C319.604 53.1654 327.908 59.8948 328.042 62.4116C328.158 64.6339 324.02 78.4763 322.598 79.4849C321.695 80.1542 314.741 84.3043 312.819 84.3043ZM318.334 53.9598C314.437 55.7447 308.224 58.9041 307.706 60.3321C306.892 62.5187 304.783 72.345 304.89 73.8533C304.988 75.2188 311.567 83.1708 312.801 83.4118C313.838 83.5903 320.471 79.9311 322.071 78.7709C323.09 78.0033 327.265 64.5893 327.148 62.4651C327.05 60.5999 319.568 54.4328 318.334 53.9598Z" fill="#263238"/>
    <path d="M327.918 64.4463C323.832 63.2236 319.524 56.414 318.263 54.3256C317.039 56.0213 313.177 60.805 307.295 62.3579L307.062 61.4654C313.776 59.6805 317.87 53.2724 317.915 53.2099L318.317 52.5674L318.683 53.2278C318.728 53.317 323.77 62.233 328.177 63.5539L327.918 64.4463Z" fill="#263238"/>
    <path d="M304.711 63.0721L304.542 62.1796C307.867 61.5103 317.905 53.2101 318.004 53.1298L318.576 53.817C318.156 54.1829 308.26 62.3581 304.711 63.0721Z" fill="#263238"/>
    <path d="M316.064 75.1126C315.785 75.123 315.505 75.0959 315.233 75.0323C315.114 74.9991 315.014 74.9203 314.953 74.8131C314.893 74.7059 314.878 74.5792 314.911 74.4608C314.944 74.3424 315.023 74.242 315.13 74.1817C315.238 74.1214 315.365 74.1062 315.483 74.1393C315.971 74.2186 316.47 74.196 316.948 74.0731C317.427 73.9501 317.875 73.7294 318.264 73.425C318.358 73.3612 318.473 73.3357 318.585 73.3536C318.697 73.3716 318.799 73.4317 318.868 73.5216C318.938 73.6116 318.97 73.7246 318.959 73.8378C318.948 73.9509 318.894 74.0555 318.809 74.1304C318.014 74.7269 317.057 75.0693 316.064 75.1126Z" fill="#263238"/>
    <path d="M315.439 77.6196C314.621 77.6094 313.814 77.4268 313.071 77.0839C312.329 76.7409 311.667 76.2452 311.13 75.6294C311.066 75.5353 311.04 75.4206 311.058 75.3084C311.076 75.1962 311.136 75.0951 311.227 75.0257C311.317 74.9563 311.43 74.9238 311.543 74.9348C311.656 74.9458 311.761 74.9995 311.836 75.0849C312.555 75.9116 313.533 76.471 314.611 76.6719C315.689 76.8729 316.803 76.7036 317.772 76.1916C317.826 76.1682 317.884 76.1556 317.943 76.1546C318.002 76.1535 318.061 76.1641 318.115 76.1856C318.17 76.2072 318.22 76.2393 318.263 76.2801C318.305 76.321 318.339 76.3697 318.362 76.4237C318.386 76.4776 318.398 76.5356 318.399 76.5944C318.4 76.6531 318.39 76.7115 318.368 76.7662C318.347 76.8209 318.315 76.8709 318.274 76.9131C318.233 76.9554 318.184 76.9893 318.13 77.0127C317.286 77.4026 316.369 77.6094 315.439 77.6196Z" fill="#263238"/>
    <path d="M315.341 64.9284C315.251 64.9278 315.164 64.8998 315.09 64.8481C315.09 64.8481 312.408 63.0631 309.968 64.2055C309.86 64.2552 309.737 64.2601 309.625 64.2191C309.514 64.1781 309.423 64.0945 309.373 63.9868C309.323 63.8791 309.319 63.7561 309.36 63.6448C309.401 63.5335 309.484 63.443 309.592 63.3933C312.516 62.0635 315.466 64.027 315.591 64.1073C315.64 64.1404 315.682 64.183 315.715 64.2324C315.747 64.2819 315.769 64.3373 315.78 64.3954C315.791 64.4535 315.79 64.5132 315.778 64.571C315.765 64.6288 315.741 64.6835 315.707 64.732C315.667 64.7925 315.613 64.8421 315.549 64.8764C315.485 64.9107 315.413 64.9285 315.341 64.9284Z" fill="#263238"/>
    <path d="M325.218 65.8307C325.099 65.8301 324.985 65.7856 324.897 65.7057C323.645 64.4556 320.757 65.5629 320.722 65.5718C320.614 65.6046 320.497 65.5954 320.396 65.546C320.294 65.4967 320.215 65.4109 320.175 65.3058C320.134 65.2007 320.135 65.0841 320.176 64.9795C320.218 64.8748 320.298 64.7897 320.4 64.7414C320.534 64.6878 323.868 63.4109 325.531 65.0717C325.614 65.1567 325.66 65.2704 325.66 65.3887C325.66 65.5071 325.614 65.6208 325.531 65.7057C325.445 65.7836 325.334 65.828 325.218 65.8307Z" fill="#263238"/>
    <path d="M313.293 67.8915C313.222 68.5787 312.73 69.0874 312.203 69.0339C311.916 68.9599 311.67 68.7783 311.515 68.5271C311.36 68.2759 311.309 67.9746 311.371 67.6862C311.452 67.0079 311.934 66.4992 312.471 66.5528C312.755 66.6267 312.999 66.8073 313.152 67.0569C313.305 67.3064 313.356 67.6055 313.293 67.8915Z" fill="#263238"/>
    <path d="M322.259 69.2302C322.283 69.3818 322.272 69.5369 322.227 69.6836C322.181 69.8302 322.102 69.9643 321.996 70.0756C321.89 70.1869 321.76 70.2724 321.616 70.3253C321.471 70.3783 321.317 70.3973 321.164 70.381C321.011 70.3647 320.864 70.3134 320.734 70.2312C320.604 70.1489 320.495 70.0379 320.415 69.9068C320.335 69.7756 320.286 69.6279 320.273 69.4749C320.259 69.322 320.281 69.168 320.337 69.0249C320.409 68.3377 320.9 67.829 321.428 67.8825C321.714 67.9565 321.96 68.1381 322.115 68.3893C322.27 68.6405 322.322 68.9418 322.259 69.2302Z" fill="#263238"/>
    <path d="M300.152 89.9358L304.166 97.0042L309.244 91.9349L303.898 85.0003L300.152 89.9358Z" fill="white"/>
    <path d="M304.166 97.4506H304.103C304.035 97.4396 303.971 97.414 303.913 97.3755C303.856 97.337 303.808 97.2864 303.773 97.2275L299.768 90.2036C299.72 90.1307 299.694 90.0454 299.694 89.9582C299.694 89.8709 299.72 89.7856 299.768 89.7127L303.514 84.7773C303.557 84.7238 303.611 84.6801 303.673 84.6493C303.735 84.6185 303.802 84.6013 303.871 84.5988C303.939 84.598 304.007 84.6139 304.067 84.645C304.128 84.6761 304.18 84.7215 304.22 84.7773L309.583 91.7119C309.657 91.7924 309.697 91.8975 309.697 92.0064C309.697 92.1154 309.657 92.2204 309.583 92.3009L304.506 97.3435C304.46 97.3836 304.405 97.4138 304.347 97.4323C304.289 97.4507 304.227 97.4569 304.166 97.4506ZM300.689 89.9715L304.264 96.2725L308.645 91.8993L303.898 85.7412L300.689 89.9715Z" fill="#263238"/>
    <path d="M312.444 92.2028L316.055 97.406L322.036 86.9104L318.728 83.7956L312.444 92.2028Z" fill="white"/>
    <path d="M316.055 97.8523C315.984 97.8519 315.913 97.8348 315.849 97.8022C315.786 97.7697 315.731 97.7226 315.689 97.6649L312.113 92.4617C312.061 92.3838 312.033 92.2921 312.033 92.1984C312.033 92.1046 312.061 92.013 312.113 91.9351L318.37 83.5368C318.406 83.4841 318.454 83.4406 318.51 83.4096C318.566 83.3786 318.628 83.3611 318.692 83.3583C318.754 83.3501 318.817 83.3562 318.876 83.3764C318.935 83.3965 318.988 83.4301 319.032 83.4743L322.384 86.6337C322.458 86.7013 322.507 86.7918 322.523 86.8905C322.539 86.9892 322.522 87.0905 322.473 87.1782L316.484 97.6738C316.447 97.7392 316.394 97.7942 316.33 97.8333C316.266 97.8723 316.193 97.8942 316.118 97.8969L316.055 97.8523ZM312.998 92.2118L316.019 96.5671L321.472 86.9997L318.79 84.465L312.998 92.2118Z" fill="#263238"/>
    <path d="M295.54 127.465H287.682L286.699 109.312H296.523L295.54 127.465Z" fill="white"/>
    <path d="M295.96 127.911H287.262L286.225 108.865H296.952L295.96 127.911ZM288.102 127.019H295.111L296.049 109.758H287.173L288.102 127.019Z" fill="#263238"/>
    <path d="M297.381 107.768H285.662V110.516H297.381V107.768Z" fill="#263238"/>
    <path d="M297.828 110.963H285.215V107.321H297.828V110.963ZM286.109 110.07H296.935V108.214H286.109V110.07Z" fill="#263238"/>
    <path d="M295.925 106.474H287.307V107.768H295.925V106.474Z" fill="#263238"/>
    <path d="M296.362 108.214H286.86V106.027H296.362V108.214ZM287.754 107.322H295.468V106.92H287.754V107.322Z" fill="#263238"/>
    <path d="M286.323 129.089C286.323 129.134 286.323 129.178 286.323 129.196C286.089 129.871 285.662 130.463 285.095 130.899C284.528 131.335 283.846 131.596 283.132 131.651C282.744 131.69 282.352 131.649 281.982 131.529C281.611 131.409 281.269 131.214 280.978 130.955C280.443 130.374 280.127 129.627 280.084 128.839C279.937 128.112 279.976 127.359 280.198 126.651C280.42 125.943 280.817 125.302 281.353 124.787C281.729 124.341 283.141 123.19 283.248 122.619L284.044 116.371C284.044 116.371 291.839 114.586 292.509 114.685C292.648 114.704 292.78 114.757 292.895 114.837C293.009 114.917 293.104 115.023 293.17 115.147C293.236 115.27 293.272 115.407 293.275 115.547C293.279 115.687 293.249 115.826 293.189 115.952C293.019 116.461 291.839 116.71 291.58 116.791C291.32 116.871 287.512 117.808 287.512 117.808L286.163 119.415C286.819 119.088 287.497 118.804 288.192 118.567C288.451 118.567 292.661 117.978 293.189 117.897C293.342 117.891 293.494 117.924 293.631 117.993C293.768 118.062 293.885 118.166 293.97 118.293C294.055 118.42 294.106 118.567 294.118 118.72C294.13 118.873 294.102 119.026 294.038 119.165C293.698 119.843 293.448 120.004 293.189 120.004C292.929 120.004 288.719 120.771 288.719 120.771L286.35 122.797C286.35 122.797 289.568 121.78 289.926 121.78C290.283 121.78 293.224 121.699 293.314 122.208C293.38 122.466 293.347 122.739 293.222 122.974C293.096 123.209 292.886 123.388 292.634 123.476C292.044 123.645 289.756 123.984 289.756 123.984L287.208 125.332H289.667C289.667 125.332 292.044 126.099 292.545 126.224C293.046 126.349 293.439 126.564 292.715 127.322C291.991 128.081 286.77 127.474 286.77 127.474C286.77 127.474 286.413 128.679 286.323 129.089Z" fill="white"/>
    <path d="M282.828 132.15C282.018 132.167 281.233 131.87 280.638 131.32C280.015 130.673 279.644 129.825 279.592 128.929C279.439 128.14 279.484 127.326 279.724 126.559C279.965 125.793 280.393 125.098 280.969 124.538C281.085 124.404 281.3 124.19 281.55 123.957C282.015 123.568 282.422 123.115 282.757 122.61L283.597 116.032L283.901 115.961C285.743 115.541 291.812 114.176 292.527 114.265C292.709 114.286 292.884 114.347 293.039 114.444C293.193 114.542 293.324 114.673 293.421 114.827C293.536 115.021 293.607 115.236 293.631 115.46C293.654 115.683 293.628 115.909 293.555 116.121C293.332 116.773 292.34 117.014 291.768 117.201L291.625 117.246C291.383 117.326 288.541 118.022 287.664 118.237C287.808 118.171 287.963 118.131 288.12 118.121C288.424 118.121 292.509 117.54 293.046 117.451C293.28 117.434 293.515 117.479 293.727 117.58C293.939 117.681 294.12 117.836 294.254 118.029C294.388 118.222 294.468 118.446 294.489 118.68C294.509 118.913 294.467 119.148 294.369 119.361C294.092 119.906 293.734 120.459 293.117 120.459C292.885 120.459 290.436 120.905 288.827 121.191L288.174 121.744C288.712 121.57 289.261 121.436 289.819 121.342H289.953C292.948 121.342 293.529 121.592 293.645 122.146C293.738 122.513 293.687 122.903 293.503 123.234C293.318 123.566 293.014 123.815 292.653 123.931C292.089 124.091 290.203 124.377 289.792 124.439L288.898 124.912H289.712C290.605 125.216 292.179 125.68 292.527 125.742C292.717 125.747 292.901 125.805 293.059 125.909C293.217 126.013 293.343 126.16 293.421 126.331C293.591 126.805 293.243 127.269 292.974 127.581C292.223 128.42 288.299 128.063 287.021 127.92C287.021 128.072 286.958 128.259 286.914 128.447C286.869 128.634 286.797 129.045 286.753 129.205C286.744 129.26 286.729 129.314 286.708 129.366C286.444 130.122 285.966 130.784 285.331 131.272C284.695 131.761 283.932 132.053 283.132 132.115L282.828 132.15ZM284.402 116.764L283.642 122.726C283.579 123.243 282.989 123.833 282.167 124.609C281.986 124.77 281.813 124.939 281.648 125.118C281.151 125.585 280.783 126.172 280.58 126.822C280.376 127.472 280.344 128.164 280.486 128.83C280.519 129.517 280.791 130.17 281.255 130.678C281.499 130.889 281.783 131.049 282.09 131.147C282.398 131.245 282.722 131.28 283.043 131.249C283.671 131.202 284.271 130.972 284.77 130.588C285.269 130.204 285.644 129.683 285.85 129.089L286.306 129.134L285.868 129.027C285.868 128.875 285.966 128.581 286.02 128.295C286.261 127.117 286.297 126.974 286.717 127.019C289.041 127.286 291.902 127.349 292.286 127.019C292.379 126.918 292.46 126.807 292.527 126.688H292.375C291.884 126.599 289.944 125.983 289.497 125.796H285.331L289.586 123.556C290.221 123.467 291.946 123.199 292.411 123.065C292.538 123.019 292.644 122.931 292.712 122.815C292.781 122.7 292.807 122.564 292.787 122.431C291.861 122.238 290.914 122.175 289.971 122.244H289.828C289.586 122.244 287.897 122.762 286.404 123.235L284.312 123.895L288.442 120.325H288.558C290.159 120.031 292.876 119.558 293.126 119.558C293.18 119.558 293.341 119.424 293.573 118.951C293.608 118.883 293.623 118.806 293.615 118.73C293.607 118.654 293.577 118.582 293.529 118.522C293.493 118.466 293.445 118.418 293.387 118.384C293.33 118.35 293.265 118.33 293.198 118.326C292.939 118.371 288.469 119.004 288.129 119.004C287.977 119.004 287.048 119.45 286.288 119.807L284.429 120.7L287.209 117.398H287.343C288.8 117.041 291.187 116.452 291.383 116.389L291.562 116.336C292.509 116.068 292.679 115.889 292.706 115.827C292.742 115.744 292.761 115.654 292.761 115.564C292.761 115.473 292.742 115.383 292.706 115.3C292.677 115.253 292.636 115.213 292.588 115.185C292.539 115.157 292.485 115.142 292.429 115.14C291.991 115.095 287.995 115.907 284.402 116.719V116.764Z" fill="#263238"/>
    <path d="M327.408 125.448L325.727 127.688C325.727 127.688 325.727 141.075 326.254 142.191C326.782 143.307 330.885 146.395 333.093 146.395C335.301 146.395 339.627 141.352 339.833 140.513C340.039 139.674 334.362 123.377 334.47 122.958C334.577 122.538 333.951 122.012 333.209 122.012C332.467 122.012 327.408 125.448 327.408 125.448Z" fill="#397DF6"/>
    <path d="M333.111 146.814C330.679 146.814 326.451 143.646 325.861 142.352C325.271 141.057 325.298 129.901 325.298 127.661C325.295 127.564 325.326 127.469 325.388 127.393L327.068 125.18L327.175 125.082C329.106 123.761 332.458 121.512 333.218 121.512C333.501 121.508 333.781 121.565 334.039 121.681C334.297 121.797 334.526 121.967 334.711 122.181C334.796 122.285 334.86 122.405 334.899 122.534C334.937 122.662 334.949 122.798 334.935 122.931C335.024 123.422 335.989 126.367 336.928 129.223C339.753 137.844 340.414 140.067 340.289 140.567C340.003 141.664 335.542 146.814 333.111 146.814ZM326.192 127.813C326.192 134.194 326.362 141.289 326.675 141.986C327.157 143.039 331.144 145.921 333.111 145.921C335.078 145.921 339.19 141.2 339.422 140.379C339.422 139.737 337.411 133.596 336.079 129.526C334.041 123.333 333.987 123.065 334.05 122.824C333.955 122.694 333.83 122.59 333.684 122.521C333.539 122.453 333.379 122.422 333.218 122.431C331.301 123.391 329.468 124.511 327.738 125.778L326.192 127.813Z" fill="#263238"/>
    <path d="M333.246 117.478L333.514 123.136C333.514 123.136 333.201 125.448 331.726 126.394C330.663 126.992 329.468 127.317 328.248 127.34L327.301 125.448L325.834 123.975L333.246 117.478Z" fill="white"/>
    <path d="M328.248 127.786H327.98L326.934 125.716L325.146 123.931L333.612 116.505L333.925 123.092C333.925 123.27 333.559 125.698 331.932 126.751C330.81 127.397 329.544 127.753 328.248 127.786ZM326.46 124.002L327.676 125.251L328.499 126.885C329.542 126.825 330.556 126.519 331.458 125.992C332.745 125.171 333.049 123.074 333.049 123.047L332.817 118.397L326.46 124.002Z" fill="#263238"/>
    <path d="M334.952 109.785L324.288 107.562L317.61 125.35L326.63 126.983L334.952 109.785Z" fill="#263238"/>
    <path d="M326.854 127.483L317.021 125.698L324.02 107.063L335.641 109.481L326.854 127.483ZM318.218 125.011L326.371 126.492L334.3 110.115L324.574 108.053L318.218 125.011Z" fill="#263238"/>
    <path d="M333.487 114.301C333.487 114.301 326.335 114.622 326.255 115.193C326.174 115.764 326.416 116.46 326.657 116.541C326.898 116.621 333.246 117.496 333.246 117.496C333.246 117.496 335.034 117.094 334.909 115.666C334.913 115.481 334.878 115.297 334.808 115.126C334.737 114.955 334.632 114.801 334.498 114.672C334.364 114.544 334.206 114.445 334.032 114.381C333.858 114.317 333.672 114.29 333.487 114.301Z" fill="white"/>
    <path d="M333.263 117.933H333.183C330.796 117.612 326.755 117.041 326.514 116.969C325.951 116.782 325.727 115.755 325.817 115.131C325.87 114.747 325.951 114.238 333.46 113.881C333.941 113.86 334.413 114.019 334.783 114.328C334.962 114.498 335.105 114.703 335.204 114.93C335.302 115.157 335.353 115.401 335.355 115.648C335.337 116.202 335.126 116.732 334.759 117.147C334.392 117.563 333.891 117.837 333.343 117.924L333.263 117.933ZM326.854 116.086C327.399 116.184 330.948 116.684 333.218 116.978C333.504 116.898 334.514 116.532 334.47 115.631C334.47 115.507 334.445 115.385 334.396 115.272C334.346 115.158 334.274 115.057 334.183 114.973C334.092 114.889 333.985 114.825 333.868 114.784C333.752 114.744 333.628 114.728 333.504 114.738V114.292V114.738C331.22 114.786 328.943 115.01 326.693 115.407C326.695 115.643 326.749 115.875 326.854 116.086Z" fill="#263238"/>
    <path d="M329.437 117.076C329.437 117.076 323.18 116.362 322.849 116.764C322.518 117.166 322.214 117.71 323.162 118.112C325.51 118.893 327.897 119.554 330.313 120.093C330.748 120.068 331.172 119.949 331.557 119.744C331.941 119.539 332.276 119.253 332.539 118.906C332.657 118.718 332.732 118.506 332.76 118.286C332.787 118.065 332.767 117.842 332.7 117.63L329.437 117.076Z" fill="white"/>
    <path d="M330.304 120.548C327.831 120.014 325.389 119.34 322.992 118.531C322.782 118.465 322.591 118.35 322.436 118.194C322.28 118.039 322.164 117.848 322.098 117.639C322.067 117.424 322.087 117.205 322.155 116.999C322.223 116.793 322.338 116.606 322.491 116.452C322.652 116.246 322.956 115.863 329.473 116.603L332.95 117.201L333.048 117.398C333.153 117.669 333.194 117.96 333.168 118.25C333.141 118.539 333.049 118.819 332.897 119.067C332.604 119.492 332.219 119.846 331.77 120.103C331.321 120.359 330.82 120.512 330.304 120.548ZM323.153 117.13C322.983 117.362 322.992 117.442 322.992 117.46C322.992 117.478 323.09 117.594 323.35 117.71C324.351 118.121 329.857 119.62 330.331 119.656C330.678 119.627 331.015 119.528 331.322 119.365C331.629 119.203 331.9 118.98 332.119 118.71C332.235 118.502 332.299 118.269 332.307 118.031L329.366 117.532C327.302 117.238 325.219 117.101 323.135 117.121L323.153 117.13Z" fill="#263238"/>
    <path d="M326.184 119.138C326.184 119.138 321.419 118.192 321.177 118.665C320.936 119.138 320.864 119.932 321.338 120.254C321.812 120.575 328.168 122.306 328.562 122.467C328.955 122.628 329.912 122.155 330.225 121.521C330.412 121.068 330.44 120.564 330.305 120.093L326.184 119.138Z" fill="white"/>
    <path d="M328.74 122.949C328.621 122.947 328.503 122.926 328.391 122.886C328.275 122.833 327.381 122.574 326.505 122.324C324.665 121.87 322.856 121.301 321.088 120.619C320.792 120.354 320.598 119.994 320.541 119.601C320.484 119.207 320.567 118.807 320.775 118.468C320.927 118.174 321.168 117.683 326.264 118.701L330.644 119.718L330.715 119.959C330.894 120.548 330.856 121.181 330.608 121.744C330.418 122.081 330.149 122.367 329.823 122.577C329.498 122.787 329.126 122.914 328.74 122.949ZM321.49 118.986C321.365 119.316 321.356 119.754 321.544 119.879C321.893 120.075 325.039 120.985 326.72 121.467C327.944 121.824 328.507 121.994 328.695 122.056C328.885 122.044 329.07 121.991 329.237 121.901C329.404 121.81 329.549 121.685 329.663 121.533C329.777 121.381 329.856 121.207 329.896 121.021C329.936 120.836 329.935 120.644 329.893 120.459L326.049 119.566C324.553 119.222 323.025 119.027 321.49 118.986Z" fill="#263238"/>
    <path d="M326.335 121.914C326.335 121.914 322.759 121.2 322.607 121.601C322.455 122.003 322.366 122.869 323.081 123.101C323.796 123.333 327.927 125.002 328.642 124.529C329.357 124.056 329.116 122.788 329.116 122.788L326.335 121.914Z" fill="white"/>
    <path d="M328.222 125.055C326.59 124.839 324.998 124.392 323.493 123.725L322.938 123.529C322.776 123.476 322.626 123.391 322.498 123.277C322.37 123.163 322.267 123.024 322.196 122.869C322.008 122.408 322.008 121.892 322.196 121.432C322.313 121.119 322.491 120.691 326.425 121.476H326.47L329.509 122.431V122.699C329.509 122.851 329.778 124.27 328.848 124.895C328.657 125.002 328.441 125.057 328.222 125.055ZM322.974 121.923C322.92 122.106 322.92 122.301 322.974 122.485C322.995 122.532 323.025 122.574 323.064 122.608C323.103 122.642 323.148 122.667 323.198 122.681L323.779 122.887C327.113 124.118 328.124 124.252 328.383 124.154C328.642 124.056 328.696 123.467 328.678 123.128L326.228 122.333C325.158 122.102 324.069 121.964 322.974 121.923Z" fill="#263238"/>
    <path d="M347.664 17.6177H380.086C381.542 17.6177 382.938 18.1951 383.967 19.2228C384.996 20.2504 385.575 21.6443 385.575 23.0976V45.0349C385.575 46.4883 384.996 47.8821 383.967 48.9098C382.938 49.9374 381.542 50.5148 380.086 50.5148H361.046L352.339 62.7597V50.5148H347.664C346.942 50.5159 346.228 50.3751 345.561 50.1002C344.894 49.8253 344.288 49.4219 343.777 48.9129C343.266 48.4039 342.861 47.7995 342.585 47.134C342.309 46.4686 342.166 45.7553 342.166 45.0349V23.0976C342.166 22.3772 342.309 21.6639 342.585 20.9985C342.861 20.3331 343.266 19.7286 343.777 19.2196C344.288 18.7106 344.894 18.3072 345.561 18.0323C346.228 17.7574 346.942 17.6166 347.664 17.6177Z" fill="#263238"/>
    <path d="M352.339 63.2058C352.295 63.2143 352.249 63.2143 352.205 63.2058C352.114 63.1789 352.035 63.1235 351.979 63.048C351.922 62.9724 351.892 62.8806 351.892 62.7864V50.9342H347.664C346.089 50.9342 344.578 50.3101 343.463 49.199C342.349 48.0879 341.722 46.5806 341.719 45.0081V23.0975C341.722 21.525 342.349 20.0177 343.463 18.9066C344.578 17.7955 346.089 17.1714 347.664 17.1714H380.086C381.659 17.1738 383.168 17.7989 384.28 18.9097C385.393 20.0206 386.019 21.5265 386.022 23.0975V45.0348C386.019 46.6058 385.393 48.1118 384.28 49.2226C383.168 50.3335 381.659 50.9586 380.086 50.9609H361.314L352.741 63.0184C352.695 63.0807 352.634 63.1304 352.564 63.1632C352.494 63.1959 352.416 63.2106 352.339 63.2058ZM347.664 18.0639C346.326 18.0639 345.043 18.5939 344.096 19.5377C343.149 20.4814 342.616 21.7617 342.613 23.0975V45.0348C342.616 46.3706 343.149 47.6509 344.096 48.5947C345.043 49.5384 346.326 50.0685 347.664 50.0684H352.339C352.457 50.0684 352.571 50.1155 352.655 50.1992C352.739 50.2828 352.786 50.3963 352.786 50.5147V61.3584L360.688 50.2559C360.728 50.1983 360.782 50.1512 360.844 50.1186C360.906 50.0859 360.975 50.0688 361.046 50.0684H380.086C381.422 50.0661 382.703 49.535 383.648 48.5915C384.593 47.6481 385.125 46.3691 385.128 45.0348V23.0975C385.125 21.7632 384.593 20.4843 383.648 19.5408C382.703 18.5974 381.422 18.0663 380.086 18.0639H347.664Z" fill="#263238"/>
    <path d="M361.823 45.0707H361.716C361.233 45.0508 360.762 44.9196 360.339 44.6873C359.915 44.455 359.551 44.128 359.276 43.7319L353.385 35.298C353.134 34.9624 352.953 34.5798 352.853 34.1731C352.753 33.7663 352.736 33.3436 352.803 32.9302C352.87 32.5168 353.02 32.121 353.243 31.7665C353.467 31.4119 353.759 31.1058 354.103 30.8664C354.447 30.6269 354.836 30.459 355.247 30.3726C355.657 30.2863 356.081 30.2832 356.492 30.3636C356.904 30.4439 357.295 30.6062 357.643 30.8406C357.991 31.075 358.287 31.3768 358.516 31.728L362.092 36.7884L374.481 21.75C375.013 21.1279 375.768 20.7388 376.584 20.6665C377.4 20.5942 378.212 20.8444 378.846 21.3634C379.479 21.8823 379.883 22.6286 379.971 23.4418C380.06 24.2551 379.825 25.0704 379.317 25.7127L364.308 43.9372C364.007 44.301 363.626 44.5919 363.196 44.7882C362.766 44.9845 362.296 45.081 361.823 45.0707Z" fill="#14CC70"/>
    <path d="M376.832 20.5896C377.557 20.5866 378.26 20.8395 378.817 21.3036C379.135 21.5628 379.398 21.8821 379.593 22.2433C379.787 22.6045 379.908 23.0004 379.949 23.4083C379.989 23.8163 379.949 24.2282 379.83 24.6206C379.711 25.0129 379.515 25.3779 379.255 25.6947L364.246 43.9192C363.951 44.2764 363.582 44.564 363.163 44.7615C362.744 44.959 362.286 45.0615 361.823 45.0616H361.716C361.233 45.0417 360.762 44.9105 360.338 44.6782C359.915 44.446 359.551 44.119 359.276 43.7229L353.385 35.2889C353.134 34.9533 352.953 34.5707 352.853 34.164C352.753 33.7572 352.736 33.3346 352.803 32.9211C352.87 32.5077 353.02 32.1119 353.243 31.7574C353.466 31.4028 353.759 31.0967 354.103 30.8573C354.447 30.6178 354.836 30.4499 355.246 30.3636C355.657 30.2772 356.081 30.2741 356.492 30.3545C356.904 30.4349 357.295 30.5971 357.643 30.8315C357.99 31.0659 358.287 31.3677 358.516 31.7189L362.091 36.7793L374.481 21.7409C374.772 21.3826 375.14 21.0939 375.558 20.8962C375.976 20.6985 376.432 20.5968 376.895 20.5986M376.895 18.8136C376.168 18.8114 375.451 18.9704 374.794 19.2791C374.137 19.5878 373.557 20.0385 373.095 20.5986L362.208 33.8163L360.026 30.6926C359.248 29.7122 358.125 29.0653 356.885 28.884C355.646 28.7028 354.383 29.0009 353.356 29.7175C352.33 30.434 351.615 31.515 351.36 32.7395C351.104 33.9641 351.326 35.2399 351.981 36.3063L357.872 44.7492C358.308 45.3686 358.88 45.8797 359.545 46.2433C360.21 46.607 360.95 46.8133 361.707 46.8466H361.904C362.63 46.8475 363.347 46.688 364.004 46.3794C364.661 46.0707 365.241 45.6207 365.703 45.0616L380.631 26.837C381.225 26.1185 381.602 25.2462 381.717 24.3219C381.833 23.3976 381.683 22.4596 381.284 21.6173C380.886 20.775 380.256 20.0633 379.467 19.5653C378.679 19.0672 377.765 18.8034 376.832 18.8047L376.895 18.8136Z" fill="#263238"/>
</svg>
