<svg width="44" height="57" viewBox="0 0 44 57" fill="none" xmlns="http://www.w3.org/2000/svg">
<g filter="url(#filter0_i_3663_9429)">
<path d="M33.4407 25.4069L28.3559 20.8307C27.339 21.8476 25.8136 23.8815 21.7458 23.8815C17.678 23.8815 16.1525 21.8476 14.6271 20.3222L18.1864 16.2544H7V28.4578L10.0508 25.4069C11.5763 26.9324 16.0508 31.0002 21.7458 31.0002C27.4407 31.0002 31.7458 27.1019 33.4407 25.4069Z" fill="#B5B6B5"/>
</g>
<g filter="url(#filter1_i_3663_9429)">
<path d="M21.2373 13.2034L17.678 9.13559C14.1186 11.1695 13.4407 14.7288 13.6102 16.2542H7C7 15.2373 7.098 11.9414 8.01695 9.64407C9.0339 7.1017 11.2373 5.40678 12.5932 4.55932L9.54238 1H21.2373L21.2373 13.2034Z" fill="#4D8DF4"/>
</g>
<g filter="url(#filter2_i_3663_9429)">
<path d="M25.3051 15.7456L28.8644 12.1864C26.8305 8.62712 22.9322 8.11854 21.2373 8.11857V1C22.7627 1.00001 26.8305 1.50847 28.8644 3.0339C30.762 4.45705 32.2543 6.08462 32.9322 7.10157L36.4915 4.05072V15.7456H25.3051Z" fill="#1B3CAC"/>
</g>
<path d="M25.3051 15.7456L28.8644 12.1864C26.8305 8.62712 22.9322 8.11854 21.2373 8.11857V1C22.7627 1.00001 26.8305 1.50847 28.8644 3.0339C30.762 4.45705 32.2543 6.08462 32.9322 7.10157L36.4915 4.05072V15.7456H25.3051Z" stroke="black" stroke-width="0.2"/>
<path d="M1.42969 41.5781V45H0.488281V40.7734H1.38672L1.42969 41.5781ZM2.72266 40.7461L2.71484 41.6211C2.65755 41.6107 2.59505 41.6029 2.52734 41.5977C2.46224 41.5924 2.39714 41.5898 2.33203 41.5898C2.17057 41.5898 2.02865 41.6133 1.90625 41.6602C1.78385 41.7044 1.68099 41.7695 1.59766 41.8555C1.51693 41.9388 1.45443 42.0404 1.41016 42.1602C1.36589 42.2799 1.33984 42.4141 1.33203 42.5625L1.11719 42.5781C1.11719 42.3125 1.14323 42.0664 1.19531 41.8398C1.2474 41.6133 1.32552 41.4141 1.42969 41.2422C1.53646 41.0703 1.66927 40.9362 1.82812 40.8398C1.98958 40.7435 2.17578 40.6953 2.38672 40.6953C2.44401 40.6953 2.50521 40.7005 2.57031 40.7109C2.63802 40.7214 2.6888 40.7331 2.72266 40.7461ZM5.09766 45.0781C4.78516 45.0781 4.5026 45.0273 4.25 44.9258C4 44.8216 3.78646 44.6771 3.60938 44.4922C3.4349 44.3073 3.30078 44.0898 3.20703 43.8398C3.11328 43.5898 3.06641 43.3203 3.06641 43.0312V42.875C3.06641 42.5443 3.11458 42.2448 3.21094 41.9766C3.30729 41.7083 3.44141 41.4792 3.61328 41.2891C3.78516 41.0964 3.98828 40.9492 4.22266 40.8477C4.45703 40.7461 4.71094 40.6953 4.98438 40.6953C5.28646 40.6953 5.55078 40.7461 5.77734 40.8477C6.00391 40.9492 6.19141 41.0924 6.33984 41.2773C6.49089 41.4596 6.60286 41.6771 6.67578 41.9297C6.7513 42.1823 6.78906 42.4609 6.78906 42.7656V43.168H3.52344V42.4922H5.85938V42.418C5.85417 42.2487 5.82031 42.0898 5.75781 41.9414C5.69792 41.793 5.60547 41.6732 5.48047 41.582C5.35547 41.4909 5.1888 41.4453 4.98047 41.4453C4.82422 41.4453 4.6849 41.4792 4.5625 41.5469C4.44271 41.612 4.34245 41.707 4.26172 41.832C4.18099 41.957 4.11849 42.1081 4.07422 42.2852C4.03255 42.4596 4.01172 42.6562 4.01172 42.875V43.0312C4.01172 43.2161 4.03646 43.388 4.08594 43.5469C4.13802 43.7031 4.21354 43.8398 4.3125 43.957C4.41146 44.0742 4.53125 44.1667 4.67188 44.2344C4.8125 44.2995 4.97266 44.332 5.15234 44.332C5.37891 44.332 5.58073 44.2865 5.75781 44.1953C5.9349 44.1042 6.08854 43.9753 6.21875 43.8086L6.71484 44.2891C6.6237 44.4219 6.50521 44.5495 6.35938 44.6719C6.21354 44.7917 6.03516 44.8893 5.82422 44.9648C5.61589 45.0404 5.3737 45.0781 5.09766 45.0781ZM10.9766 43.1484H11.9531C11.9219 43.5208 11.8177 43.8529 11.6406 44.1445C11.4635 44.4336 11.2148 44.6615 10.8945 44.8281C10.5742 44.9948 10.1849 45.0781 9.72656 45.0781C9.375 45.0781 9.05859 45.0156 8.77734 44.8906C8.49609 44.763 8.25521 44.5833 8.05469 44.3516C7.85417 44.1172 7.70052 43.8346 7.59375 43.5039C7.48958 43.1732 7.4375 42.8034 7.4375 42.3945V41.9219C7.4375 41.513 7.49089 41.1432 7.59766 40.8125C7.70703 40.4818 7.86328 40.1992 8.06641 39.9648C8.26953 39.7279 8.51302 39.5469 8.79688 39.4219C9.08333 39.2969 9.40495 39.2344 9.76172 39.2344C10.2148 39.2344 10.5977 39.3177 10.9102 39.4844C11.2227 39.651 11.4648 39.8815 11.6367 40.1758C11.8112 40.4701 11.918 40.8073 11.957 41.1875H10.9805C10.9544 40.9427 10.8971 40.7331 10.8086 40.5586C10.7227 40.3841 10.5951 40.2513 10.4258 40.1602C10.2565 40.0664 10.0352 40.0195 9.76172 40.0195C9.53776 40.0195 9.34245 40.0612 9.17578 40.1445C9.00911 40.2279 8.86979 40.3503 8.75781 40.5117C8.64583 40.6732 8.5612 40.8724 8.50391 41.1094C8.44922 41.3438 8.42188 41.612 8.42188 41.9141V42.3945C8.42188 42.681 8.44661 42.9414 8.49609 43.1758C8.54818 43.4076 8.6263 43.6068 8.73047 43.7734C8.83724 43.9401 8.97266 44.069 9.13672 44.1602C9.30078 44.2513 9.4974 44.2969 9.72656 44.2969C10.0052 44.2969 10.2305 44.2526 10.4023 44.1641C10.5768 44.0755 10.7083 43.9466 10.7969 43.7773C10.888 43.6055 10.9479 43.3958 10.9766 43.1484ZM15.0586 40.0703L13.3594 45H12.332L14.4727 39.3125H15.1289L15.0586 40.0703ZM16.4805 45L14.7773 40.0703L14.7031 39.3125H15.3633L17.5117 45H16.4805ZM16.3984 42.8906V43.668H13.3047V42.8906H16.3984ZM20.3086 42.8789H18.8281V42.1016H20.3086C20.5664 42.1016 20.7747 42.0599 20.9336 41.9766C21.0924 41.8932 21.2083 41.7786 21.2812 41.6328C21.3568 41.4844 21.3945 41.3151 21.3945 41.125C21.3945 40.9453 21.3568 40.7773 21.2812 40.6211C21.2083 40.4622 21.0924 40.3346 20.9336 40.2383C20.7747 40.1419 20.5664 40.0938 20.3086 40.0938H19.1289V45H18.1484V39.3125H20.3086C20.7487 39.3125 21.1224 39.3906 21.4297 39.5469C21.7396 39.7005 21.9753 39.9141 22.1367 40.1875C22.2982 40.4583 22.3789 40.7682 22.3789 41.1172C22.3789 41.4844 22.2982 41.7995 22.1367 42.0625C21.9753 42.3255 21.7396 42.5273 21.4297 42.668C21.1224 42.8086 20.7487 42.8789 20.3086 42.8789ZM25.5977 39.3125V45H24.625V39.3125H25.5977ZM27.3828 39.3125V40.0938H22.8555V39.3125H27.3828ZM31.3828 43.1484H32.3594C32.3281 43.5208 32.224 43.8529 32.0469 44.1445C31.8698 44.4336 31.6211 44.6615 31.3008 44.8281C30.9805 44.9948 30.5911 45.0781 30.1328 45.0781C29.7812 45.0781 29.4648 45.0156 29.1836 44.8906C28.9023 44.763 28.6615 44.5833 28.4609 44.3516C28.2604 44.1172 28.1068 43.8346 28 43.5039C27.8958 43.1732 27.8438 42.8034 27.8438 42.3945V41.9219C27.8438 41.513 27.8971 41.1432 28.0039 40.8125C28.1133 40.4818 28.2695 40.1992 28.4727 39.9648C28.6758 39.7279 28.9193 39.5469 29.2031 39.4219C29.4896 39.2969 29.8112 39.2344 30.168 39.2344C30.6211 39.2344 31.0039 39.3177 31.3164 39.4844C31.6289 39.651 31.8711 39.8815 32.043 40.1758C32.2174 40.4701 32.3242 40.8073 32.3633 41.1875H31.3867C31.3607 40.9427 31.3034 40.7331 31.2148 40.5586C31.1289 40.3841 31.0013 40.2513 30.832 40.1602C30.6628 40.0664 30.4414 40.0195 30.168 40.0195C29.944 40.0195 29.7487 40.0612 29.582 40.1445C29.4154 40.2279 29.276 40.3503 29.1641 40.5117C29.0521 40.6732 28.9674 40.8724 28.9102 41.1094C28.8555 41.3438 28.8281 41.612 28.8281 41.9141V42.3945C28.8281 42.681 28.8529 42.9414 28.9023 43.1758C28.9544 43.4076 29.0326 43.6068 29.1367 43.7734C29.2435 43.9401 29.3789 44.069 29.543 44.1602C29.707 44.2513 29.9036 44.2969 30.1328 44.2969C30.4115 44.2969 30.6367 44.2526 30.8086 44.1641C30.9831 44.0755 31.1146 43.9466 31.2031 43.7773C31.2943 43.6055 31.3542 43.3958 31.3828 43.1484ZM37.0078 41.6875V42.4648H33.9883V41.6875H37.0078ZM34.2305 39.3125V45H33.25V39.3125H34.2305ZM37.7617 39.3125V45H36.7852V39.3125H37.7617ZM41.2148 40.0703L39.5156 45H38.4883L40.6289 39.3125H41.2852L41.2148 40.0703ZM42.6367 45L40.9336 40.0703L40.8594 39.3125H41.5195L43.668 45H42.6367ZM42.5547 42.8906V43.668H39.4609V42.8906H42.5547Z" fill="white"/>
<path d="M3.05371 53.4092H1.94336V52.8262H3.05371C3.24707 52.8262 3.40332 52.7949 3.52246 52.7324C3.6416 52.6699 3.72852 52.584 3.7832 52.4746C3.83984 52.3633 3.86816 52.2363 3.86816 52.0938C3.86816 51.959 3.83984 51.833 3.7832 51.7158C3.72852 51.5967 3.6416 51.501 3.52246 51.4287C3.40332 51.3564 3.24707 51.3203 3.05371 51.3203H2.16895V55H1.43359V50.7344H3.05371C3.38379 50.7344 3.66406 50.793 3.89453 50.9102C4.12695 51.0254 4.30371 51.1855 4.4248 51.3906C4.5459 51.5938 4.60645 51.8262 4.60645 52.0879C4.60645 52.3633 4.5459 52.5996 4.4248 52.7969C4.30371 52.9941 4.12695 53.1455 3.89453 53.251C3.66406 53.3564 3.38379 53.4092 3.05371 53.4092ZM5.9043 52.4336V55H5.19824V51.8301H5.87207L5.9043 52.4336ZM6.87402 51.8096L6.86816 52.4658C6.8252 52.458 6.77832 52.4521 6.72754 52.4482C6.67871 52.4443 6.62988 52.4424 6.58105 52.4424C6.45996 52.4424 6.35352 52.46 6.26172 52.4951C6.16992 52.5283 6.09277 52.5771 6.03027 52.6416C5.96973 52.7041 5.92285 52.7803 5.88965 52.8701C5.85645 52.96 5.83691 53.0605 5.83105 53.1719L5.66992 53.1836C5.66992 52.9844 5.68945 52.7998 5.72852 52.6299C5.76758 52.46 5.82617 52.3105 5.9043 52.1816C5.98438 52.0527 6.08398 51.9521 6.20312 51.8799C6.32422 51.8076 6.46387 51.7715 6.62207 51.7715C6.66504 51.7715 6.71094 51.7754 6.75977 51.7832C6.81055 51.791 6.84863 51.7998 6.87402 51.8096ZM8.07227 51.8301V55H7.36328V51.8301H8.07227ZM7.31641 50.998C7.31641 50.8906 7.35156 50.8018 7.42188 50.7314C7.49414 50.6592 7.59375 50.623 7.7207 50.623C7.8457 50.623 7.94434 50.6592 8.0166 50.7314C8.08887 50.8018 8.125 50.8906 8.125 50.998C8.125 51.1035 8.08887 51.1914 8.0166 51.2617C7.94434 51.332 7.8457 51.3672 7.7207 51.3672C7.59375 51.3672 7.49414 51.332 7.42188 51.2617C7.35156 51.1914 7.31641 51.1035 7.31641 50.998ZM9.87695 54.4404L10.6533 51.8301H11.3857L10.2842 55H9.82715L9.87695 54.4404ZM9.28223 51.8301L10.0732 54.4521L10.1113 55H9.6543L8.54688 51.8301H9.28223ZM13.5625 54.3643V52.8525C13.5625 52.7393 13.542 52.6416 13.501 52.5596C13.46 52.4775 13.3975 52.4141 13.3135 52.3691C13.2314 52.3242 13.1279 52.3018 13.0029 52.3018C12.8877 52.3018 12.7881 52.3213 12.7041 52.3604C12.6201 52.3994 12.5547 52.4521 12.5078 52.5186C12.4609 52.585 12.4375 52.6602 12.4375 52.7441H11.7344C11.7344 52.6191 11.7646 52.498 11.8252 52.3809C11.8857 52.2637 11.9736 52.1592 12.0889 52.0674C12.2041 51.9756 12.3418 51.9033 12.502 51.8506C12.6621 51.7979 12.8418 51.7715 13.041 51.7715C13.2793 51.7715 13.4902 51.8115 13.6738 51.8916C13.8594 51.9717 14.0049 52.0928 14.1104 52.2549C14.2178 52.415 14.2715 52.6162 14.2715 52.8584V54.2676C14.2715 54.4121 14.2812 54.542 14.3008 54.6572C14.3223 54.7705 14.3525 54.8691 14.3916 54.9531V55H13.668C13.6348 54.9238 13.6084 54.8271 13.5889 54.71C13.5713 54.5908 13.5625 54.4756 13.5625 54.3643ZM13.665 53.0723L13.6709 53.5088H13.1641C13.0332 53.5088 12.918 53.5215 12.8184 53.5469C12.7188 53.5703 12.6357 53.6055 12.5693 53.6523C12.5029 53.6992 12.4531 53.7559 12.4199 53.8223C12.3867 53.8887 12.3701 53.9639 12.3701 54.0479C12.3701 54.1318 12.3896 54.209 12.4287 54.2793C12.4678 54.3477 12.5244 54.4014 12.5986 54.4404C12.6748 54.4795 12.7666 54.499 12.874 54.499C13.0186 54.499 13.1445 54.4697 13.252 54.4111C13.3613 54.3506 13.4473 54.2773 13.5098 54.1914C13.5723 54.1035 13.6055 54.0205 13.6094 53.9424L13.8379 54.2559C13.8145 54.3359 13.7744 54.4219 13.7178 54.5137C13.6611 54.6055 13.5869 54.6934 13.4951 54.7773C13.4053 54.8594 13.2969 54.9268 13.1699 54.9795C13.0449 55.0322 12.9004 55.0586 12.7363 55.0586C12.5293 55.0586 12.3447 55.0176 12.1826 54.9355C12.0205 54.8516 11.8936 54.7393 11.8018 54.5986C11.71 54.4561 11.6641 54.2949 11.6641 54.1152C11.6641 53.9473 11.6953 53.7988 11.7578 53.6699C11.8223 53.5391 11.916 53.4297 12.0391 53.3418C12.1641 53.2539 12.3164 53.1875 12.4961 53.1426C12.6758 53.0957 12.8809 53.0723 13.1113 53.0723H13.665ZM16.3047 54.4961C16.4199 54.4961 16.5234 54.4736 16.6152 54.4287C16.709 54.3818 16.7842 54.3174 16.8408 54.2354C16.8994 54.1533 16.9316 54.0586 16.9375 53.9512H17.6025C17.5986 54.1562 17.5381 54.3428 17.4209 54.5107C17.3037 54.6787 17.1484 54.8125 16.9551 54.9121C16.7617 55.0098 16.5479 55.0586 16.3135 55.0586C16.0713 55.0586 15.8604 55.0176 15.6807 54.9355C15.501 54.8516 15.3516 54.7363 15.2324 54.5898C15.1133 54.4434 15.0234 54.2744 14.9629 54.083C14.9043 53.8916 14.875 53.6865 14.875 53.4678V53.3652C14.875 53.1465 14.9043 52.9414 14.9629 52.75C15.0234 52.5566 15.1133 52.3867 15.2324 52.2402C15.3516 52.0938 15.501 51.9795 15.6807 51.8975C15.8604 51.8135 16.0703 51.7715 16.3105 51.7715C16.5645 51.7715 16.7871 51.8223 16.9785 51.9238C17.1699 52.0234 17.3203 52.1631 17.4297 52.3428C17.541 52.5205 17.5986 52.7275 17.6025 52.9639H16.9375C16.9316 52.8467 16.9023 52.7412 16.8496 52.6475C16.7988 52.5518 16.7266 52.4756 16.6328 52.4189C16.541 52.3623 16.4307 52.334 16.3018 52.334C16.1592 52.334 16.041 52.3633 15.9473 52.4219C15.8535 52.4785 15.7803 52.5566 15.7275 52.6562C15.6748 52.7539 15.6367 52.8643 15.6133 52.9873C15.5918 53.1084 15.5811 53.2344 15.5811 53.3652V53.4678C15.5811 53.5986 15.5918 53.7256 15.6133 53.8486C15.6348 53.9717 15.6719 54.082 15.7246 54.1797C15.7793 54.2754 15.8535 54.3525 15.9473 54.4111C16.041 54.4678 16.1602 54.4961 16.3047 54.4961ZM19.0645 54.6543L19.9258 51.8301H20.6816L19.4102 55.4834C19.3809 55.5615 19.3428 55.6465 19.2959 55.7383C19.249 55.8301 19.1875 55.917 19.1113 55.999C19.0371 56.083 18.9443 56.1504 18.833 56.2012C18.7217 56.2539 18.5869 56.2803 18.4287 56.2803C18.3662 56.2803 18.3057 56.2744 18.2471 56.2627C18.1904 56.2529 18.1367 56.2422 18.0859 56.2305L18.083 55.6914C18.1025 55.6934 18.126 55.6953 18.1533 55.6973C18.1826 55.6992 18.2061 55.7002 18.2236 55.7002C18.3408 55.7002 18.4385 55.6855 18.5166 55.6562C18.5947 55.6289 18.6582 55.584 18.707 55.5215C18.7578 55.459 18.8008 55.375 18.8359 55.2695L19.0645 54.6543ZM18.5781 51.8301L19.3311 54.2031L19.457 54.9473L18.9678 55.0732L17.8164 51.8301H18.5781ZM24.001 52.8965V53.459H22.4512V52.8965H24.001ZM27.7979 50.7344V55H27.0684V50.7344H27.7979ZM29.1367 50.7344V51.3203H25.7412V50.7344H29.1367ZM30.7451 55.0586C30.5107 55.0586 30.2988 55.0205 30.1094 54.9443C29.9219 54.8662 29.7617 54.7578 29.6289 54.6191C29.498 54.4805 29.3975 54.3174 29.3271 54.1299C29.2568 53.9424 29.2217 53.7402 29.2217 53.5234V53.4062C29.2217 53.1582 29.2578 52.9336 29.3301 52.7324C29.4023 52.5312 29.5029 52.3594 29.6318 52.2168C29.7607 52.0723 29.9131 51.9619 30.0889 51.8857C30.2646 51.8096 30.4551 51.7715 30.6602 51.7715C30.8867 51.7715 31.085 51.8096 31.2549 51.8857C31.4248 51.9619 31.5654 52.0693 31.6768 52.208C31.79 52.3447 31.874 52.5078 31.9287 52.6973C31.9854 52.8867 32.0137 53.0957 32.0137 53.3242V53.626H29.5645V53.1191H31.3164V53.0635C31.3125 52.9365 31.2871 52.8174 31.2402 52.7061C31.1953 52.5947 31.126 52.5049 31.0322 52.4365C30.9385 52.3682 30.8135 52.334 30.6572 52.334C30.54 52.334 30.4355 52.3594 30.3438 52.4102C30.2539 52.459 30.1787 52.5303 30.1182 52.624C30.0576 52.7178 30.0107 52.8311 29.9775 52.9639C29.9463 53.0947 29.9307 53.2422 29.9307 53.4062V53.5234C29.9307 53.6621 29.9492 53.791 29.9863 53.9102C30.0254 54.0273 30.082 54.1299 30.1562 54.2178C30.2305 54.3057 30.3203 54.375 30.4258 54.4258C30.5312 54.4746 30.6514 54.499 30.7861 54.499C30.9561 54.499 31.1074 54.4648 31.2402 54.3965C31.373 54.3281 31.4883 54.2314 31.5859 54.1064L31.958 54.4668C31.8896 54.5664 31.8008 54.6621 31.6914 54.7539C31.582 54.8438 31.4482 54.917 31.29 54.9736C31.1338 55.0303 30.9521 55.0586 30.7451 55.0586ZM33.2734 52.4336V55H32.5674V51.8301H33.2412L33.2734 52.4336ZM34.2432 51.8096L34.2373 52.4658C34.1943 52.458 34.1475 52.4521 34.0967 52.4482C34.0479 52.4443 33.999 52.4424 33.9502 52.4424C33.8291 52.4424 33.7227 52.46 33.6309 52.4951C33.5391 52.5283 33.4619 52.5771 33.3994 52.6416C33.3389 52.7041 33.292 52.7803 33.2588 52.8701C33.2256 52.96 33.2061 53.0605 33.2002 53.1719L33.0391 53.1836C33.0391 52.9844 33.0586 52.7998 33.0977 52.6299C33.1367 52.46 33.1953 52.3105 33.2734 52.1816C33.3535 52.0527 33.4531 51.9521 33.5723 51.8799C33.6934 51.8076 33.833 51.7715 33.9912 51.7715C34.0342 51.7715 34.0801 51.7754 34.1289 51.7832C34.1797 51.791 34.2178 51.7998 34.2432 51.8096ZM35.3916 52.4746V55H34.6855V51.8301H35.3506L35.3916 52.4746ZM35.2773 53.2979L35.0371 53.2949C35.0371 53.0762 35.0645 52.874 35.1191 52.6885C35.1738 52.5029 35.2539 52.3418 35.3594 52.2051C35.4648 52.0664 35.5957 51.96 35.752 51.8857C35.9102 51.8096 36.0928 51.7715 36.2998 51.7715C36.4443 51.7715 36.5762 51.793 36.6953 51.8359C36.8164 51.877 36.9209 51.9424 37.0088 52.0322C37.0986 52.1221 37.167 52.2373 37.2139 52.3779C37.2627 52.5186 37.2871 52.6885 37.2871 52.8877V55H36.5811V52.9492C36.5811 52.7949 36.5576 52.6738 36.5107 52.5859C36.4658 52.498 36.4004 52.4355 36.3145 52.3984C36.2305 52.3594 36.1299 52.3398 36.0127 52.3398C35.8799 52.3398 35.7666 52.3652 35.6729 52.416C35.5811 52.4668 35.5059 52.5361 35.4473 52.624C35.3887 52.7119 35.3457 52.8135 35.3184 52.9287C35.291 53.0439 35.2773 53.167 35.2773 53.2979ZM37.2432 53.1104L36.9121 53.1836C36.9121 52.9922 36.9385 52.8115 36.9912 52.6416C37.0459 52.4697 37.125 52.3193 37.2285 52.1904C37.334 52.0596 37.4639 51.957 37.6182 51.8828C37.7725 51.8086 37.9492 51.7715 38.1484 51.7715C38.3105 51.7715 38.4551 51.7939 38.582 51.8389C38.7109 51.8818 38.8203 51.9502 38.9102 52.0439C39 52.1377 39.0684 52.2598 39.1152 52.4102C39.1621 52.5586 39.1855 52.7383 39.1855 52.9492V55H38.4766V52.9463C38.4766 52.7861 38.4531 52.6621 38.4062 52.5742C38.3613 52.4863 38.2969 52.4258 38.2129 52.3926C38.1289 52.3574 38.0283 52.3398 37.9111 52.3398C37.8018 52.3398 37.7051 52.3604 37.6211 52.4014C37.5391 52.4404 37.4697 52.4961 37.4131 52.5684C37.3564 52.6387 37.3135 52.7197 37.2842 52.8115C37.2568 52.9033 37.2432 53.0029 37.2432 53.1104ZM41.6904 54.1416C41.6904 54.0713 41.6729 54.0078 41.6377 53.9512C41.6025 53.8926 41.5352 53.8398 41.4355 53.793C41.3379 53.7461 41.1934 53.7031 41.002 53.6641C40.834 53.627 40.6797 53.583 40.5391 53.5322C40.4004 53.4795 40.2812 53.416 40.1816 53.3418C40.082 53.2676 40.0049 53.1797 39.9502 53.0781C39.8955 52.9766 39.8682 52.8594 39.8682 52.7266C39.8682 52.5977 39.8965 52.4756 39.9531 52.3604C40.0098 52.2451 40.0908 52.1436 40.1963 52.0557C40.3018 51.9678 40.4297 51.8984 40.5801 51.8477C40.7324 51.7969 40.9023 51.7715 41.0898 51.7715C41.3555 51.7715 41.583 51.8164 41.7725 51.9062C41.9639 51.9941 42.1104 52.1143 42.2119 52.2666C42.3135 52.417 42.3643 52.5869 42.3643 52.7764H41.6582C41.6582 52.6924 41.6367 52.6143 41.5938 52.542C41.5527 52.4678 41.4902 52.4082 41.4062 52.3633C41.3223 52.3164 41.2168 52.293 41.0898 52.293C40.9688 52.293 40.8682 52.3125 40.7881 52.3516C40.71 52.3887 40.6514 52.4375 40.6123 52.498C40.5752 52.5586 40.5566 52.625 40.5566 52.6973C40.5566 52.75 40.5664 52.7979 40.5859 52.8408C40.6074 52.8818 40.6426 52.9199 40.6914 52.9551C40.7402 52.9883 40.8066 53.0195 40.8906 53.0488C40.9766 53.0781 41.084 53.1064 41.2129 53.1338C41.4551 53.1846 41.6631 53.25 41.8369 53.3301C42.0127 53.4082 42.1475 53.5098 42.2412 53.6348C42.335 53.7578 42.3818 53.9141 42.3818 54.1035C42.3818 54.2441 42.3516 54.373 42.291 54.4902C42.2324 54.6055 42.1465 54.7061 42.0332 54.792C41.9199 54.876 41.7842 54.9414 41.626 54.9883C41.4697 55.0352 41.2939 55.0586 41.0986 55.0586C40.8115 55.0586 40.5684 55.0078 40.3691 54.9062C40.1699 54.8027 40.0186 54.6709 39.915 54.5107C39.8135 54.3486 39.7627 54.1807 39.7627 54.0068H40.4453C40.4531 54.1377 40.4893 54.2422 40.5537 54.3203C40.6201 54.3965 40.7021 54.4521 40.7998 54.4873C40.8994 54.5205 41.002 54.5371 41.1074 54.5371C41.2344 54.5371 41.3408 54.5205 41.4268 54.4873C41.5127 54.4521 41.5781 54.4053 41.623 54.3467C41.668 54.2861 41.6904 54.2178 41.6904 54.1416Z" fill="white"/>
<defs>
<filter id="filter0_i_3663_9429" x="7" y="15.2544" width="27.4407" height="15.7456" filterUnits="userSpaceOnUse" color-interpolation-filters="sRGB">
<feFlood flood-opacity="0" result="BackgroundImageFix"/>
<feBlend mode="normal" in="SourceGraphic" in2="BackgroundImageFix" result="shape"/>
<feColorMatrix in="SourceAlpha" type="matrix" values="0 0 0 0 0 0 0 0 0 0 0 0 0 0 0 0 0 0 127 0" result="hardAlpha"/>
<feOffset dx="1" dy="-1"/>
<feGaussianBlur stdDeviation="0.5"/>
<feComposite in2="hardAlpha" operator="arithmetic" k2="-1" k3="1"/>
<feColorMatrix type="matrix" values="0 0 0 0 1 0 0 0 0 1 0 0 0 0 1 0 0 0 0.2 0"/>
<feBlend mode="normal" in2="shape" result="effect1_innerShadow_3663_9429"/>
</filter>
<filter id="filter1_i_3663_9429" x="7" y="0" width="15.2373" height="16.2544" filterUnits="userSpaceOnUse" color-interpolation-filters="sRGB">
<feFlood flood-opacity="0" result="BackgroundImageFix"/>
<feBlend mode="normal" in="SourceGraphic" in2="BackgroundImageFix" result="shape"/>
<feColorMatrix in="SourceAlpha" type="matrix" values="0 0 0 0 0 0 0 0 0 0 0 0 0 0 0 0 0 0 127 0" result="hardAlpha"/>
<feOffset dx="1" dy="-1"/>
<feGaussianBlur stdDeviation="0.5"/>
<feComposite in2="hardAlpha" operator="arithmetic" k2="-1" k3="1"/>
<feColorMatrix type="matrix" values="0 0 0 0 0 0 0 0 0 0 0 0 0 0 0 0 0 0 0.1 0"/>
<feBlend mode="normal" in2="shape" result="effect1_innerShadow_3663_9429"/>
</filter>
<filter id="filter2_i_3663_9429" x="21.1373" y="-0.100098" width="16.4542" height="15.9458" filterUnits="userSpaceOnUse" color-interpolation-filters="sRGB">
<feFlood flood-opacity="0" result="BackgroundImageFix"/>
<feBlend mode="normal" in="SourceGraphic" in2="BackgroundImageFix" result="shape"/>
<feColorMatrix in="SourceAlpha" type="matrix" values="0 0 0 0 0 0 0 0 0 0 0 0 0 0 0 0 0 0 127 0" result="hardAlpha"/>
<feOffset dx="1" dy="-1"/>
<feGaussianBlur stdDeviation="0.5"/>
<feComposite in2="hardAlpha" operator="arithmetic" k2="-1" k3="1"/>
<feColorMatrix type="matrix" values="0 0 0 0 0 0 0 0 0 0 0 0 0 0 0 0 0 0 0.1 0"/>
<feBlend mode="normal" in2="shape" result="effect1_innerShadow_3663_9429"/>
</filter>
</defs>
</svg>
