<svg width="96" height="64" viewBox="0 0 96 64" fill="none" xmlns="http://www.w3.org/2000/svg">
    <g clip-path="url(#clip0_3663_10359)">
        <path d="M5.89474 0.5H90.1053C93.097 0.5 95.5 2.8598 95.5 5.74359V58.2564C95.5 61.1402 93.097 63.5 90.1053 63.5H5.89474C2.90298 63.5 0.5 61.1402 0.5 58.2564V5.74359C0.5 2.8598 2.90298 0.5 5.89474 0.5Z"
              fill="#171717"/>
        <path fill-rule="evenodd" clip-rule="evenodd"
              d="M43.4392 32.4239L43.8571 29.7616L42.9261 29.7399H38.4805L41.57 10.0937C41.5796 10.0343 41.6107 9.97904 41.6562 9.93975C41.7019 9.90046 41.76 9.87891 41.8209 9.87891H49.3172C51.8059 9.87891 53.5233 10.3982 54.4199 11.4232C54.8404 11.9041 55.108 12.4067 55.2376 12.9596C55.3735 13.5399 55.3758 14.2332 55.2432 15.0789L55.2336 15.1404V15.6824L55.654 15.9212C56.0079 16.1096 56.2893 16.3251 56.5051 16.5717C56.8646 16.983 57.0972 17.5057 57.1955 18.1251C57.2971 18.7621 57.2635 19.5205 57.0972 20.3789C56.9053 21.3662 56.5953 22.2262 56.1766 22.9299C55.7914 23.5782 55.3008 24.1161 54.718 24.5327C54.1619 24.9288 53.501 25.2294 52.7538 25.4217C52.0295 25.6107 51.2041 25.7061 50.2986 25.7061H49.7151C49.2982 25.7061 48.893 25.8569 48.5749 26.1268C48.2559 26.4026 48.045 26.7793 47.9803 27.1911L47.9363 27.4309L47.1978 32.1235L47.1643 32.2956C47.1554 32.3503 47.1402 32.3774 47.1178 32.3958C47.098 32.4127 47.0693 32.4239 47.0412 32.4239H43.4392Z"
              fill="#28356A"/>
        <path fill-rule="evenodd" clip-rule="evenodd"
              d="M56.0518 15.2031C56.0297 15.3466 56.004 15.4931 55.9752 15.6439C54.9867 20.734 51.6046 22.4925 47.2851 22.4925H45.0857C44.5573 22.4925 44.1121 22.877 44.03 23.3995L42.585 32.5915C42.5316 32.9348 42.7952 33.2438 43.1403 33.2438H47.0413C47.503 33.2438 47.8955 32.9073 47.9683 32.4505L48.0065 32.2519L48.7409 27.5777L48.7883 27.3213C48.8601 26.8628 49.2534 26.5261 49.7152 26.5261H50.2986C54.0779 26.5261 57.0365 24.9875 57.9013 20.5344C58.2623 18.6742 58.0755 17.121 57.1196 16.0285C56.8304 15.6993 56.4716 15.4258 56.0518 15.2031Z"
              fill="#298FC2"/>
        <path fill-rule="evenodd" clip-rule="evenodd"
              d="M55.0181 14.7897C54.867 14.7454 54.7113 14.7055 54.5514 14.6693C54.3907 14.6341 54.2261 14.6029 54.0566 14.5755C53.4638 14.4794 52.8139 14.4338 52.1179 14.4338H46.2424C46.0976 14.4338 45.9602 14.4666 45.8372 14.5259C45.5661 14.6565 45.3648 14.9138 45.3162 15.2288L44.0662 23.1682L44.0303 23.3996C44.1125 22.8771 44.5578 22.4924 45.0859 22.4924H47.2853C51.6048 22.4924 54.987 20.7331 55.9757 15.6438C56.0051 15.4932 56.0299 15.3466 56.0521 15.2032C55.802 15.0701 55.5312 14.9562 55.2396 14.8593C55.1674 14.8352 55.0931 14.8121 55.0181 14.7897Z"
              fill="#22284F"/>
        <path fill-rule="evenodd" clip-rule="evenodd"
              d="M45.3162 15.2288C45.365 14.9138 45.5661 14.6566 45.8372 14.5268C45.961 14.4673 46.0976 14.4345 46.2424 14.4345H52.1179C52.8139 14.4345 53.4638 14.4803 54.0568 14.5764C54.2261 14.6036 54.3907 14.635 54.5514 14.6702C54.7113 14.7062 54.867 14.7463 55.0181 14.7903C55.0931 14.8128 55.1674 14.8361 55.2403 14.8593C55.5319 14.9563 55.803 15.071 56.0531 15.2032C56.3472 13.3222 56.0506 12.0414 55.0365 10.8817C53.9184 9.60477 51.9006 9.05835 49.3184 9.05835H41.8219C41.2946 9.05835 40.8447 9.44291 40.7631 9.96643L37.6408 29.8145C37.5792 30.2071 37.8813 30.5615 38.2762 30.5615H42.9041L45.3162 15.2288Z"
              fill="#28356A"/>
        <path fill-rule="evenodd" clip-rule="evenodd"
              d="M21.3524 37.8276H15.8868C15.5127 37.8276 15.1946 38.1001 15.1362 38.4705L12.9256 52.5256C12.8818 52.8031 13.096 53.0529 13.3765 53.0529H15.9857C16.3597 53.0529 16.6778 52.7806 16.7363 52.4095L17.3324 48.6185C17.3899 48.2474 17.7087 47.975 18.0821 47.975H19.8122C23.4126 47.975 25.4903 46.2276 26.0332 42.7655C26.2777 41.2507 26.0435 40.0606 25.336 39.2271C24.5593 38.3118 23.1815 37.8276 21.3524 37.8276ZM21.9828 42.9612C21.6839 44.9278 20.1855 44.9278 18.7367 44.9278H17.9118L18.4904 41.2547C18.5248 41.0327 18.7165 40.8692 18.9404 40.8692H19.3185C20.3055 40.8692 21.2365 40.8692 21.7175 41.4334C22.0045 41.7699 22.0922 42.2701 21.9828 42.9612Z"
              fill="#28356A"/>
        <path fill-rule="evenodd" clip-rule="evenodd"
              d="M37.8296 42.7914H35.2122C34.9893 42.7914 34.7965 42.9549 34.7622 43.1769L34.6463 43.9109L34.4634 43.645C33.8969 42.8202 32.6331 42.5444 31.3722 42.5444C28.4798 42.5444 26.0096 44.7413 25.5285 47.8229C25.2784 49.3601 25.6339 50.8301 26.5035 51.8551C27.3012 52.7976 28.4424 53.1903 29.8001 53.1903C32.1306 53.1903 33.4227 51.6876 33.4227 51.6876L33.3061 52.417C33.2623 52.6958 33.4765 52.9459 33.7554 52.9459H36.1128C36.4877 52.9459 36.8042 52.6734 36.8634 52.3023L38.2779 43.3187C38.3226 43.0421 38.1091 42.7914 37.8296 42.7914ZM34.1811 47.9001C33.9286 49.3993 32.7421 50.406 31.2282 50.406C30.4683 50.406 29.8611 50.1615 29.4708 49.6984C29.084 49.2384 28.9371 48.5837 29.06 47.8542C29.296 46.3675 30.5026 45.3279 31.9933 45.3279C32.7364 45.3279 33.3406 45.5759 33.7386 46.0428C34.1372 46.5149 34.2956 47.1738 34.1811 47.9001Z"
              fill="#28356A"/>
        <path fill-rule="evenodd" clip-rule="evenodd"
              d="M51.5675 43.0161H48.9372C48.6863 43.0161 48.4506 43.1412 48.3084 43.3505L44.6808 48.7089L43.1431 43.5595C43.0465 43.2372 42.75 43.0161 42.4144 43.0161H39.83C39.5157 43.0161 39.2977 43.324 39.3975 43.6206L42.2945 52.1464L39.571 56.0023C39.3568 56.306 39.5724 56.7236 39.9425 56.7236H42.5695C42.8189 56.7236 43.0521 56.6016 43.1936 56.3967L51.9414 43.7335C52.1509 43.4306 51.9358 43.0161 51.5675 43.0161Z"
              fill="#28356A"/>
        <path fill-rule="evenodd" clip-rule="evenodd"
              d="M60.3355 37.8276H54.8693C54.4961 37.8276 54.1779 38.1001 54.1195 38.4705L51.909 52.5256C51.8652 52.8031 52.0794 53.0529 52.3582 53.0529H55.1634C55.4238 53.0529 55.6467 52.8624 55.6875 52.6027L56.3149 48.6185C56.3724 48.2474 56.6915 47.975 57.0646 47.975H58.7941C62.395 47.975 64.4721 46.2276 65.0157 42.7655C65.261 41.2507 65.0253 40.0606 64.3179 39.2271C63.5417 38.3118 62.1648 37.8276 60.3355 37.8276ZM60.9661 42.9612C60.668 44.9278 59.1695 44.9278 57.7199 44.9278H56.8961L57.4754 41.2547C57.5096 41.0327 57.6998 40.8692 57.9244 40.8692H58.3025C59.2886 40.8692 60.2205 40.8692 60.7015 41.4334C60.9885 41.7699 61.0755 42.2701 60.9661 42.9612Z"
              fill="#298FC2"/>
        <path fill-rule="evenodd" clip-rule="evenodd"
              d="M76.8093 42.7914H74.1935C73.9691 42.7914 73.778 42.9549 73.7444 43.1769L73.6286 43.9109L73.4447 43.645C72.8781 42.8202 71.6154 42.5444 70.3542 42.5444C67.4621 42.5444 64.9927 44.7413 64.5117 47.8229C64.2623 49.3601 64.6162 50.8301 65.4856 51.8551C66.2851 52.7976 67.4245 53.1903 68.7824 53.1903C71.1127 53.1903 72.4049 51.6876 72.4049 51.6876L72.2884 52.417C72.2445 52.6958 72.4585 52.9459 72.7391 52.9459H75.0959C75.4691 52.9459 75.7871 52.6734 75.8455 52.3023L77.2609 43.3187C77.3041 43.0421 77.0897 42.7914 76.8093 42.7914ZM73.1612 47.9001C72.9102 49.3993 71.7218 50.406 70.208 50.406C69.4496 50.406 68.8408 50.1615 68.4505 49.6984C68.0641 49.2384 67.9184 48.5837 68.0397 47.8542C68.2773 46.3675 69.4824 45.3279 70.973 45.3279C71.7162 45.3279 72.3203 45.5759 72.7184 46.0428C73.1186 46.5149 73.2769 47.1738 73.1612 47.9001Z"
              fill="#298FC2"/>
        <path fill-rule="evenodd" clip-rule="evenodd"
              d="M79.6772 38.214L77.4339 52.5262C77.3901 52.8038 77.6041 53.0536 77.883 53.0536H80.1383C80.5132 53.0536 80.8312 52.7813 80.8886 52.4102L83.1008 38.3558C83.1449 38.0784 82.9306 37.8276 82.6517 37.8276H80.1264C79.9035 37.8283 79.7116 37.992 79.6772 38.214Z"
              fill="#298FC2"/>
    </g>
</svg>
