<svg width="96" height="64" viewBox="0 0 96 64" fill="none" xmlns="http://www.w3.org/2000/svg">
    <g clip-path="url(#clip0_3663_10372)">
        <path d="M7.65217 0.5H88.3478C92.3081 0.5 95.5 3.63933 95.5 7.48936V56.5106C95.5 60.3607 92.3081 63.5 88.3478 63.5H7.65217C3.69195 63.5 0.5 60.3607 0.5 56.5106V7.48936C0.5 3.63933 3.69195 0.5 7.65217 0.5Z"
              fill="#171717" stroke-opacity="0.1" stroke="none"/>
        <path d="M50.9064 21.4178L46.0298 22.4644V18.5106L50.9064 17.4834V21.4178ZM61.0479 23.6079C59.1438 23.6079 57.9198 24.4994 57.2398 25.1197L56.9872 23.918H52.7129V46.5164L57.5701 45.4892L57.5895 40.0043C58.289 40.5082 59.3186 41.2253 61.0284 41.2253C64.5061 41.2253 67.673 38.4344 67.673 32.2906C67.6535 26.6701 64.4478 23.6079 61.0479 23.6079ZM59.882 36.9614C58.7358 36.9614 58.0557 36.5545 57.5894 36.0505L57.5701 28.8601C58.0752 28.2981 58.7746 27.9105 59.882 27.9105C61.6501 27.9105 62.8741 29.8873 62.8741 32.4262C62.8741 35.0233 61.6694 36.9614 59.882 36.9614ZM82.9829 32.4844C82.9829 27.5228 80.5737 23.6079 75.9691 23.6079C71.3452 23.6079 68.5475 27.5228 68.5475 32.4457C68.5475 38.2793 71.8503 41.2253 76.5909 41.2253C78.9029 41.2253 80.6515 40.702 81.9726 39.9655V36.0893C80.6515 36.7483 79.136 37.1553 77.2126 37.1553C75.328 37.1553 73.6572 36.4963 73.4435 34.2093H82.9441C82.9441 34.1026 82.9511 33.8603 82.959 33.581C82.97 33.2011 82.9829 32.7523 82.9829 32.4844ZM73.3851 30.6432C73.3851 28.4532 74.7257 27.5423 75.9497 27.5423C77.1349 27.5423 78.3977 28.4532 78.3977 30.6432H73.3851ZM46.0295 23.9373H50.9061V40.8959H46.0295V23.9373ZM40.4928 23.9373L40.8037 25.3716C41.9499 23.2784 44.223 23.7047 44.8447 23.9373V28.395C44.2425 28.1818 42.2996 27.9105 41.1534 29.4029V40.8959H36.2962V23.9373H40.4928ZM31.089 19.7316L26.3484 20.7394L26.329 36.2637C26.329 39.1321 28.4856 41.2446 31.361 41.2446C32.9541 41.2446 34.1199 40.954 34.761 40.6051V36.6708C34.1393 36.9227 31.0695 37.8143 31.0695 34.9458V28.0655H34.761V23.9373H31.0695L31.089 19.7316ZM19.607 27.8137C18.5772 27.8137 17.9555 28.1043 17.9555 28.8602C17.9555 29.6855 19.0255 30.0486 20.3529 30.4989C22.5169 31.2332 25.3652 32.1995 25.3773 35.7792C25.3773 39.2485 22.5989 41.2448 18.5578 41.2448C16.8869 41.2448 15.0606 40.9152 13.2537 40.1401V35.5273C14.8857 36.4189 16.9452 37.0778 18.5578 37.0778C19.6458 37.0778 20.423 36.7871 20.423 35.8955C20.423 34.9815 19.263 34.5636 17.8628 34.0592C15.7302 33.2909 13.04 32.3217 13.04 29.0928C13.04 25.6623 15.6629 23.6079 19.607 23.6079C21.2195 23.6079 22.8127 23.8599 24.4252 24.4995V29.054C22.9486 28.2594 21.0835 27.8137 19.607 27.8137Z"
              fill="#6461FC" stroke="none" stroke-opacity="0.1"/>
    </g>
</svg>
